<?xml version="1.0" encoding="utf-8"?>
<!-- Generator: Adobe Illustrator 24.0.0, SVG Export Plug-In . SVG Version: 6.00 Build 0)  -->
<svg version="1.1" id="Capa_1" xmlns="http://www.w3.org/2000/svg" xmlns:xlink="http://www.w3.org/1999/xlink" x="0px" y="0px"
	 viewBox="0 0 354 138" style="enable-background:new 0 0 354 138;" xml:space="preserve">
<style type="text/css">
	.st0{fill:#FCFCFC;}
</style>
<g>
	<path class="st0" d="M6.08,110.11c3.77-2.88,7.42-5.93,11.35-8.58c2.2-1.48,2.51-3.07,2.33-5.54c-1.02-13.44,0.22-26.53,7.95-38.12
		C33.93,48.52,43.33,43.94,54,41.53c15.36-3.47,30.39-1.65,45.22,2.91c0.88,0.27,2.21,1.15,2.22,1.78c0.17,5.82,0.1,11.65,0.1,17.65
		c-4.97-1.06-9.5-2.37-14.11-2.94c-15.43-1.91-28.9,2.38-36.52,17.92c-0.69,1.4-1.05,2.96-1.27,4.8
		c12.97-4.99,26.16-7.24,39.84-6.49c-12.54,2.79-24.57,6.99-36.02,12.77c-5.29,2.67-5.56,3.24-2.88,8.56
		c3.98,7.9,11.01,11.2,19.37,12.22c13.17,1.6,24.34-3.27,34.53-10.98c7.81-5.91,14.35-13.05,20.15-20.93
		c1.67-2.27,1.33-3.4-1.08-4.54c-2.78-1.32-5.38-2.99-8.17-4.28c-1.73-0.8-2.39-1.83-2.38-3.75c0.06-17.49,0.07-34.98,0-52.47
		c-0.01-2.13,0.66-2.86,2.82-2.83c8,0.1,16,0.11,23.99,0c2.29-0.03,3.02,0.76,3.01,3c-0.08,9.99-0.04,19.99-0.02,29.98
		c0,1.09,0.2,2.17,0.31,3.3c10.66-7.75,22.37-8.73,34.35-6.48c11.52,2.16,19.81,11.8,21.22,23.41c0.37,3.04,0.57,6.11,0.57,9.17
		c0.05,18.26-0.03,36.52,0.09,54.78c0.02,2.8-0.81,3.62-3.59,3.55c-7.7-0.17-15.42-0.18-23.12,0c-2.88,0.07-3.54-0.93-3.52-3.64
		c0.11-16.14,0.06-32.29,0.05-48.43c-0.01-8.49-4.62-13.66-12.18-13.73c-8.14-0.07-14.12,5.66-14.16,13.86
		c-0.08,15.86-0.03,31.71-0.03,47.57c0,4.3-0.01,4.31-4.22,4.31c-7.52,0-15.03-0.07-22.55,0.04c-2.22,0.03-3.19-0.57-3.02-2.93
		c0.17-2.46,0.04-4.94,0.04-8.12c-1.85,0.96-3.12,1.53-4.3,2.24c-8.56,5.12-17.53,9.25-27.5,10.72
		c-16.32,2.42-31.88,0.81-45.77-9.01c-6.39-4.52-10.91-10.54-13.44-17.94c-0.73-2.15-1.65-2.42-3.58-1.5
		c-3.99,1.89-8.06,3.61-12.09,5.41C6.26,110.36,6.17,110.23,6.08,110.11z"/>
	<path class="st0" d="M312.83,48.89c0.74-5.04,0.74-5.04,6-5.04c7.13,0,14.26,0.09,21.39-0.05c2.45-0.05,3.11,0.81,3.1,3.15
		c-0.09,15.28-0.41,30.57,0.07,45.83c0.34,10.79,1.74,21.56,2.81,32.32c0.2,2.05,1.09,4.03,1.72,6.27
		c-0.84,0.08-1.56,0.21-2.28,0.21c-8.57,0.01-17.15-0.06-25.72,0.06c-2.19,0.03-3.37-0.69-4.03-2.75c-0.66-2.08-1.58-4.07-2.38-6.1
		c-0.39-0.28-0.79-0.55-1.18-0.83c-0.41,0.87-0.67,1.86-1.26,2.58c-4.67,5.65-10.69,8.38-18.04,8.88
		c-24.37,1.66-39.72-15.55-42.39-36.93c-1.33-10.64-0.74-21.09,3.26-31.13c4.84-12.16,13.12-20.67,26.35-23.53
		c10.03-2.17,19.23,0.46,28.04,5.09c1.27,0.67,2.53,1.37,3.81,2.03C312.23,49.01,312.45,48.92,312.83,48.89z M313,87.94
		c0.08,0,0.15-0.01,0.23-0.01c-0.24-3.63,0.21-7.47-0.87-10.83c-1.92-5.99-6.47-9.78-12.85-10.63c-6.8-0.91-12.55,1.47-16.08,7.39
		c-5.46,9.17-5.4,18.68,0.06,27.86c3.69,6.22,11.29,8.84,18.13,6.81c7.14-2.11,11.38-7.85,11.38-15.4C313,91.4,313,89.67,313,87.94z
		"/>
	<path class="st0" d="M211.35,89.58c0-13.36,0.07-26.72-0.06-40.08c-0.03-2.72,0.83-3.45,3.47-3.39c7.71,0.16,15.42,0.12,23.13,0.01
		c2.23-0.03,3.03,0.62,3.03,2.94c-0.07,27.1-0.07,54.21,0,81.31c0.01,2.31-0.78,2.98-3.02,2.95c-7.71-0.11-15.42-0.14-23.13,0.01
		c-2.62,0.05-3.51-0.65-3.48-3.38C211.43,116.49,211.35,103.04,211.35,89.58z"/>
	<path class="st0" d="M240.92,18.97c-0.02,9.19-6.16,15.2-15.5,15.17c-8.95-0.03-15.23-6.33-15.24-15.29
		c-0.01-9.02,6.41-15.4,15.48-15.39C234.77,3.48,240.94,9.75,240.92,18.97z"/>
</g>
</svg>
