<?xml version="1.0" encoding="utf-8"?>
<!-- Generator: Adobe Illustrator 24.0.0, SVG Export Plug-In . SVG Version: 6.00 Build 0)  -->
<svg version="1.1" id="Capa_1" xmlns="http://www.w3.org/2000/svg" xmlns:xlink="http://www.w3.org/1999/xlink" x="0px" y="0px"
	 viewBox="0 0 90 90" style="enable-background:new 0 0 90 90;" xml:space="preserve">
<style type="text/css">
	.st0{fill:#008BE9;}
	.st1{fill-rule:evenodd;clip-rule:evenodd;fill:#FFFFFF;}
	.st2{fill:#FFFFFF;}
</style>
<g>
	<path class="st2" d="M64.3,21.83c-2.38,0-4.31,1.93-4.31,4.31s1.93,4.31,4.31,4.31c2.38,0,4.31-1.93,4.31-4.31
		S66.68,21.83,64.3,21.83z M45.12,27.36c-9.99,0-18.12,8.13-18.12,18.12s8.13,18.12,18.12,18.12c9.99,0,18.12-8.13,18.12-18.12
		S55.11,27.36,45.12,27.36z M45.12,57.08c-6.4,0-11.61-5.21-11.61-11.6s5.21-11.6,11.61-11.6c6.4,0,11.6,5.21,11.6,11.6
		S51.52,57.08,45.12,57.08z M81.68,30.42c0-12.2-9.89-22.1-22.1-22.1H30.42c-12.2,0-22.1,9.89-22.1,22.1v29.17
		c0,12.2,9.89,22.1,22.1,22.1h29.16c12.2,0,22.1-9.89,22.1-22.1V30.42z M74.76,59.58c0,8.38-6.8,15.18-15.18,15.18H30.42
		c-8.38,0-15.18-6.79-15.18-15.18V30.42c0-8.38,6.8-15.18,15.18-15.18h29.16c8.38,0,15.18,6.79,15.18,15.18V59.58z"/>
</g>
</svg>
