<?xml version="1.0" encoding="utf-8"?>
<!-- Generator: Adobe Illustrator 24.0.0, SVG Export Plug-In . SVG Version: 6.00 Build 0)  -->
<svg version="1.1" id="Capa_1" xmlns="http://www.w3.org/2000/svg" xmlns:xlink="http://www.w3.org/1999/xlink" x="0px" y="0px"
	 viewBox="0 0 70 70" style="enable-background:new 0 0 70 70;" xml:space="preserve">
<style type="text/css">
	.st0{fill:#008BE9;}
	.st1{fill-rule:evenodd;clip-rule:evenodd;fill:#FFFFFF;}
	.st2{fill:#FFFFFF;}
</style>
<g>
	<path class="st2" d="M14.59,57.29c0.66-3.01,1.32-5.77,1.84-8.56c0.12-0.66-0.01-1.5-0.34-2.09c-4.67-8.33-4.56-16.57,0.82-24.46
		c5.15-7.56,14.25-11.03,23.17-8.81c9.2,2.29,15,8.3,16.74,17.62c1.63,8.72-1.26,16.15-8.3,21.56c-7.04,5.4-14.85,6.09-22.96,2.48
		c-1.13-0.51-2.07-0.59-3.22-0.19C19.88,55.68,17.38,56.42,14.59,57.29z M18.3,53.26c1.85-0.58,3.45-1.02,5-1.6
		c1.1-0.41,2-0.33,3.08,0.23c6.86,3.57,15.24,2.53,21.04-2.52c5.94-5.16,8.11-13.34,5.51-20.75c-2.57-7.29-9.44-12.46-17.18-12.65
		c-7.45-0.18-13.33,2.95-17.1,9.38c-3.81,6.48-3.61,13.14,0.22,19.61c0.62,1.06,0.93,1.95,0.57,3.17
		C18.96,49.72,18.7,51.36,18.3,53.26z"/>
	<path class="st2" d="M39.85,46.39c-1.68-0.58-3.48-0.94-5.02-1.77c-4.21-2.27-7.32-5.67-9.35-10.02c-0.99-2.13-1.3-4.39-0.74-6.66
		c0.45-1.83,1.52-3.27,3.43-3.84c0.99-0.29,1.74-0.02,2.09,1.1c0.33,1.09,0.7,2.18,1.2,3.19c0.63,1.28,0.37,2.35-0.67,3.16
		c-1,0.79-0.96,1.6-0.25,2.42c1.75,1.99,3.54,3.95,5.36,5.87c0.67,0.7,1.39,0.82,2.19-0.02c0.88-0.92,1.96-1.24,3.22-0.56
		c0.91,0.49,1.94,0.79,2.85,1.27c1.58,0.84,1.8,2.06,0.72,3.52C43.87,45.44,42.34,46.07,39.85,46.39z"/>
</g>
</svg>
