<?xml version="1.0" encoding="utf-8"?>
<!-- Generator: Adobe Illustrator 24.0.0, SVG Export Plug-In . SVG Version: 6.00 Build 0)  -->
<svg version="1.1" id="Capa_1" xmlns="http://www.w3.org/2000/svg" xmlns:xlink="http://www.w3.org/1999/xlink" x="0px" y="0px"
	 viewBox="0 0 67 67" style="enable-background:new 0 0 67 67;" xml:space="preserve">
<style type="text/css">
	.st0{fill:none;stroke:url(#SVGID_1_);stroke-width:5;stroke-miterlimit:10;}
	.st1{opacity:0.9615;fill:none;stroke:url(#SVGID_2_);stroke-width:4.8077;stroke-miterlimit:10;}
	.st2{opacity:0.9231;fill:none;stroke:url(#SVGID_3_);stroke-width:4.6154;stroke-miterlimit:10;}
	.st3{opacity:0.8846;fill:none;stroke:url(#SVGID_4_);stroke-width:4.4231;stroke-miterlimit:10;}
	.st4{opacity:0.8462;fill:none;stroke:url(#SVGID_5_);stroke-width:4.2308;stroke-miterlimit:10;}
	.st5{opacity:0.8077;fill:none;stroke:url(#SVGID_6_);stroke-width:4.0385;stroke-miterlimit:10;}
	.st6{opacity:0.7692;fill:none;stroke:url(#SVGID_7_);stroke-width:3.8462;stroke-miterlimit:10;}
	.st7{opacity:0.7308;fill:none;stroke:url(#SVGID_8_);stroke-width:3.6538;stroke-miterlimit:10;}
	.st8{opacity:0.6923;fill:none;stroke:url(#SVGID_9_);stroke-width:3.4615;stroke-miterlimit:10;}
	.st9{opacity:0.6538;fill:none;stroke:url(#SVGID_10_);stroke-width:3.2692;stroke-miterlimit:10;}
	.st10{opacity:0.6154;fill:none;stroke:url(#SVGID_11_);stroke-width:3.0769;stroke-miterlimit:10;}
	.st11{opacity:0.5769;fill:none;stroke:url(#SVGID_12_);stroke-width:2.8846;stroke-miterlimit:10;}
	.st12{opacity:0.5385;fill:none;stroke:url(#SVGID_13_);stroke-width:2.6923;stroke-miterlimit:10;}
	.st13{opacity:0.5;fill:none;stroke:url(#SVGID_14_);stroke-width:2.5;stroke-miterlimit:10;}
	.st14{opacity:0.4615;fill:none;stroke:url(#SVGID_15_);stroke-width:2.3077;stroke-miterlimit:10;}
	.st15{opacity:0.4231;fill:none;stroke:url(#SVGID_16_);stroke-width:2.1154;stroke-miterlimit:10;}
	.st16{opacity:0.3846;fill:none;stroke:url(#SVGID_17_);stroke-width:1.9231;stroke-miterlimit:10;}
	.st17{opacity:0.3462;fill:none;stroke:url(#SVGID_18_);stroke-width:1.7308;stroke-miterlimit:10;}
	.st18{opacity:0.3077;fill:none;stroke:url(#SVGID_19_);stroke-width:1.5385;stroke-miterlimit:10;}
	.st19{opacity:0.2692;fill:none;stroke:url(#SVGID_20_);stroke-width:1.3462;stroke-miterlimit:10;}
	.st20{opacity:0.2308;fill:none;stroke:url(#SVGID_21_);stroke-width:1.1538;stroke-miterlimit:10;}
	.st21{opacity:0.1923;fill:none;stroke:url(#SVGID_22_);stroke-width:0.9615;stroke-miterlimit:10;}
	.st22{opacity:0.1538;fill:none;stroke:url(#SVGID_23_);stroke-width:0.7692;stroke-miterlimit:10;}
	.st23{opacity:0.1154;fill:none;stroke:url(#SVGID_24_);stroke-width:0.5769;stroke-miterlimit:10;}
	.st24{opacity:0.0769;fill:none;stroke:url(#SVGID_25_);stroke-width:0.3846;stroke-miterlimit:10;}
	.st25{opacity:0.0385;fill:none;stroke:url(#SVGID_26_);stroke-width:0.1923;stroke-miterlimit:10;}
	.st26{opacity:0;fill:none;}
	.st27{fill:#FFFFFF;}
	.st28{fill:#212121;}
	.st29{clip-path:url(#SVGID_30_);fill:url(#SVGID_31_);}
	.st30{fill:#F9F9F9;stroke:#EFEFEF;stroke-miterlimit:10;}
	.st31{clip-path:url(#SVGID_33_);fill:url(#SVGID_34_);}
	.st32{clip-path:url(#SVGID_33_);}
	.st33{fill:url(#SVGID_35_);}
	.st34{fill:#55FFDB;}
	.st35{fill:#008BE9;}
	.st36{clip-path:url(#SVGID_37_);fill:url(#SVGID_38_);}
	.st37{fill:url(#SVGID_39_);}
	.st38{clip-path:url(#SVGID_41_);}
	.st39{clip-path:url(#SVGID_43_);fill:url(#SVGID_44_);}
	.st40{fill:url(#SVGID_45_);}
	.st41{fill:#0F0F0F;}
	.st42{fill:none;stroke:#AFAFAF;stroke-miterlimit:10;}
	.st43{fill:#FFB537;}
	.st44{fill:none;stroke:#FFB537;stroke-width:9;stroke-linecap:round;stroke-linejoin:round;stroke-miterlimit:10;}
	.st45{opacity:0.3;}
	.st46{fill:#3EAC5C;}
	.st47{fill:#627EEA;}
	.st48{clip-path:url(#SVGID_47_);fill:url(#SVGID_48_);}
	.st49{fill:url(#SVGID_49_);}
	.st50{opacity:0.7;}
	.st51{opacity:0.2;}
	.st52{fill:#252525;}
	.st53{fill-rule:evenodd;clip-rule:evenodd;fill:#FFFFFF;}
	.st54{fill:#EDEDED;}
	.st55{fill:url(#SVGID_50_);}
	.st56{fill:url(#SVGID_51_);}
	.st57{fill:url(#SVGID_52_);}
	.st58{fill:url(#SVGID_53_);}
	.st59{fill:url(#SVGID_54_);}
	.st60{fill:url(#SVGID_55_);}
	.st61{fill:url(#SVGID_56_);}
	.st62{fill:url(#SVGID_57_);}
	.st63{fill:#FFFFFF;stroke:#949494;stroke-miterlimit:10;}
	.st64{fill:url(#SVGID_58_);}
	.st65{fill:url(#SVGID_59_);}
	.st66{fill:url(#SVGID_60_);}
	.st67{fill:url(#SVGID_61_);}
	.st68{fill:url(#SVGID_62_);}
	.st69{fill:url(#SVGID_63_);}
	.st70{fill:url(#SVGID_64_);}
	.st71{fill:url(#SVGID_65_);}
	.st72{fill:none;stroke:#000000;stroke-miterlimit:10;}
	.st73{clip-path:url(#SVGID_69_);}
	.st74{clip-path:url(#SVGID_71_);fill:url(#SVGID_72_);}
	.st75{clip-path:url(#SVGID_74_);fill:url(#SVGID_75_);}
	.st76{fill:url(#SVGID_76_);}
	.st77{fill:url(#SVGID_77_);}
	.st78{fill:url(#SVGID_78_);}
	.st79{fill:url(#SVGID_79_);}
	.st80{fill:url(#SVGID_80_);}
	.st81{fill:url(#SVGID_81_);}
	.st82{fill:url(#SVGID_82_);}
	.st83{fill:url(#SVGID_83_);}
	.st84{fill:url(#SVGID_84_);}
	.st85{fill:url(#SVGID_85_);}
	.st86{fill:url(#SVGID_86_);}
	.st87{fill:url(#SVGID_87_);}
	.st88{fill:url(#SVGID_88_);}
	.st89{fill:url(#SVGID_89_);}
	.st90{fill:url(#SVGID_90_);}
	.st91{fill:url(#SVGID_91_);}
	.st92{fill:url(#SVGID_92_);}
	.st93{clip-path:url(#SVGID_94_);fill:url(#SVGID_95_);}
	.st94{fill:url(#SVGID_96_);}
	.st95{fill:#F9F9F9;stroke:#EFEFEF;stroke-width:0.7697;stroke-miterlimit:10;}
	.st96{fill:#F9F9F9;stroke:#EFEFEF;stroke-width:0.7467;stroke-miterlimit:10;}
	.st97{fill:none;stroke:#AFAFAF;stroke-width:0.7467;stroke-miterlimit:10;}
	.st98{fill:none;stroke:#FFB537;stroke-width:6.7202;stroke-linecap:round;stroke-linejoin:round;stroke-miterlimit:10;}
	.st99{clip-path:url(#SVGID_100_);fill:url(#SVGID_101_);}
	.st100{fill:#F9F9F9;stroke:#EFEFEF;stroke-width:0.5207;stroke-miterlimit:10;}
	.st101{fill:url(#SVGID_102_);}
	.st102{fill:url(#SVGID_103_);}
	.st103{fill:url(#SVGID_104_);}
	.st104{fill:url(#SVGID_105_);}
	.st105{fill:url(#SVGID_106_);}
	.st106{fill:url(#SVGID_107_);}
	.st107{fill:url(#SVGID_108_);}
	.st108{fill:url(#SVGID_109_);}
	.st109{fill:url(#SVGID_110_);}
	.st110{fill:url(#SVGID_111_);}
	.st111{fill:url(#SVGID_112_);}
	.st112{fill:url(#SVGID_113_);}
	.st113{fill:url(#SVGID_114_);}
	.st114{fill:url(#SVGID_115_);}
	.st115{fill:url(#SVGID_116_);}
	.st116{fill:url(#SVGID_117_);}
	.st117{fill:#FFFFFF;stroke:#949494;stroke-width:0.637;stroke-miterlimit:10;}
	.st118{fill:url(#SVGID_118_);}
	.st119{fill:url(#SVGID_119_);}
	.st120{fill:url(#SVGID_120_);}
	.st121{fill:url(#SVGID_121_);}
	.st122{fill:url(#SVGID_122_);}
	.st123{fill:url(#SVGID_123_);}
	.st124{fill:url(#SVGID_124_);}
	.st125{fill:url(#SVGID_125_);}
	.st126{fill:none;stroke:#AFAFAF;stroke-width:1.0323;stroke-miterlimit:10;}
	.st127{fill:none;stroke:#FFB537;stroke-width:9.2904;stroke-linecap:round;stroke-linejoin:round;stroke-miterlimit:10;}
	.st128{fill:none;stroke:#3EAC5C;stroke-width:9.25;stroke-miterlimit:10;}
	.st129{fill:none;stroke:#627EEA;stroke-width:9.25;stroke-miterlimit:10;}
</style>
<g>
	<linearGradient id="SVGID_1_" gradientUnits="userSpaceOnUse" x1="-10.8937" y1="-1.4452" x2="62.8029" y2="54.5199">
		<stop  offset="0" style="stop-color:#55FFDB"/>
		<stop  offset="1" style="stop-color:#008BE9"/>
	</linearGradient>
	<path style="fill:url(#SVGID_1_);" d="M66.05,19.63c-0.37,2.48-0.73,4.97-1.12,7.45c-0.81,5.17-1.88,10.28-3.66,15.21
		c-2,5.57-4.83,10.63-9.11,14.79c-4.67,4.54-10.33,7.16-16.61,8.65c-1.86,0.44-3.55,0.12-5.29-0.4C18.76,61.89,11,54.43,6.48,43.42
		c-2.06-5.03-3.33-10.27-4.27-15.6c-0.43-2.45-0.78-4.91-1.18-7.36c-0.29-1.78,0.05-2.45,1.67-3.32c9.57-5.16,19.15-10.31,28.7-15.5
		c1.42-0.77,2.67-0.78,4.09-0.01c9.63,5.22,19.27,10.39,28.92,15.57C65.41,17.73,66.13,18.39,66.05,19.63z M60.65,20.9
		c-0.17-0.16-0.33-0.4-0.55-0.52c-8.68-4.67-17.37-9.32-26.05-13.99c-0.4-0.22-0.71-0.22-1.12,0c-8.68,4.67-17.37,9.33-26.06,13.98
		c-0.38,0.21-0.48,0.41-0.41,0.83c0.28,1.65,0.5,3.31,0.78,4.96c0.86,5.22,2.01,10.36,3.99,15.28C15.25,51.46,22.26,58.2,32.8,61.05
		c0.49,0.13,1.06,0.15,1.55,0.04c10.1-2.23,16.97-8.3,20.98-17.74c1.82-4.27,2.98-8.73,3.8-13.28
		C59.67,27.07,60.13,24.06,60.65,20.9z"/>
	<linearGradient id="SVGID_2_" gradientUnits="userSpaceOnUse" x1="-10.7098" y1="-1.6873" x2="62.9867" y2="54.2778">
		<stop  offset="0" style="stop-color:#55FFDB"/>
		<stop  offset="1" style="stop-color:#008BE9"/>
	</linearGradient>
	<path style="fill:url(#SVGID_2_);" d="M32.05,38.72c3.55-3.73,6.97-7.35,10.44-10.92c0.45-0.47,1.1-0.82,1.72-1.02
		c1.09-0.34,2.27,0.21,2.81,1.16c0.55,0.97,0.41,1.93-0.46,2.84c-4.13,4.34-8.27,8.68-12.42,13.02c-1.09,1.14-2.84,1.12-3.94,0.01
		c-3.15-3.18-6.3-6.35-9.45-9.52c-1.33-1.33-1.49-2.54-0.47-3.56c1.13-1.13,2.86-1.08,4.08,0.14c2.39,2.39,4.76,4.8,7.14,7.2
		C31.68,38.25,31.83,38.46,32.05,38.72z"/>
</g>
</svg>
