<?xml version="1.0" encoding="utf-8"?>
<!-- Generator: Adobe Illustrator 24.0.0, SVG Export Plug-In . SVG Version: 6.00 Build 0)  -->
<svg version="1.1" id="Capa_1" xmlns="http://www.w3.org/2000/svg" xmlns:xlink="http://www.w3.org/1999/xlink" x="0px" y="0px"
	 viewBox="0 0 83 83" style="enable-background:new 0 0 83 83;" xml:space="preserve">
<style type="text/css">
	.st0{fill:none;stroke:url(#SVGID_1_);stroke-width:5;stroke-miterlimit:10;}
	.st1{opacity:0.9615;fill:none;stroke:url(#SVGID_2_);stroke-width:4.8077;stroke-miterlimit:10;}
	.st2{opacity:0.9231;fill:none;stroke:url(#SVGID_3_);stroke-width:4.6154;stroke-miterlimit:10;}
	.st3{opacity:0.8846;fill:none;stroke:url(#SVGID_4_);stroke-width:4.4231;stroke-miterlimit:10;}
	.st4{opacity:0.8462;fill:none;stroke:url(#SVGID_5_);stroke-width:4.2308;stroke-miterlimit:10;}
	.st5{opacity:0.8077;fill:none;stroke:url(#SVGID_6_);stroke-width:4.0385;stroke-miterlimit:10;}
	.st6{opacity:0.7692;fill:none;stroke:url(#SVGID_7_);stroke-width:3.8462;stroke-miterlimit:10;}
	.st7{opacity:0.7308;fill:none;stroke:url(#SVGID_8_);stroke-width:3.6538;stroke-miterlimit:10;}
	.st8{opacity:0.6923;fill:none;stroke:url(#SVGID_9_);stroke-width:3.4615;stroke-miterlimit:10;}
	.st9{opacity:0.6538;fill:none;stroke:url(#SVGID_10_);stroke-width:3.2692;stroke-miterlimit:10;}
	.st10{opacity:0.6154;fill:none;stroke:url(#SVGID_11_);stroke-width:3.0769;stroke-miterlimit:10;}
	.st11{opacity:0.5769;fill:none;stroke:url(#SVGID_12_);stroke-width:2.8846;stroke-miterlimit:10;}
	.st12{opacity:0.5385;fill:none;stroke:url(#SVGID_13_);stroke-width:2.6923;stroke-miterlimit:10;}
	.st13{opacity:0.5;fill:none;stroke:url(#SVGID_14_);stroke-width:2.5;stroke-miterlimit:10;}
	.st14{opacity:0.4615;fill:none;stroke:url(#SVGID_15_);stroke-width:2.3077;stroke-miterlimit:10;}
	.st15{opacity:0.4231;fill:none;stroke:url(#SVGID_16_);stroke-width:2.1154;stroke-miterlimit:10;}
	.st16{opacity:0.3846;fill:none;stroke:url(#SVGID_17_);stroke-width:1.9231;stroke-miterlimit:10;}
	.st17{opacity:0.3462;fill:none;stroke:url(#SVGID_18_);stroke-width:1.7308;stroke-miterlimit:10;}
	.st18{opacity:0.3077;fill:none;stroke:url(#SVGID_19_);stroke-width:1.5385;stroke-miterlimit:10;}
	.st19{opacity:0.2692;fill:none;stroke:url(#SVGID_20_);stroke-width:1.3462;stroke-miterlimit:10;}
	.st20{opacity:0.2308;fill:none;stroke:url(#SVGID_21_);stroke-width:1.1538;stroke-miterlimit:10;}
	.st21{opacity:0.1923;fill:none;stroke:url(#SVGID_22_);stroke-width:0.9615;stroke-miterlimit:10;}
	.st22{opacity:0.1538;fill:none;stroke:url(#SVGID_23_);stroke-width:0.7692;stroke-miterlimit:10;}
	.st23{opacity:0.1154;fill:none;stroke:url(#SVGID_24_);stroke-width:0.5769;stroke-miterlimit:10;}
	.st24{opacity:0.0769;fill:none;stroke:url(#SVGID_25_);stroke-width:0.3846;stroke-miterlimit:10;}
	.st25{opacity:0.0385;fill:none;stroke:url(#SVGID_26_);stroke-width:0.1923;stroke-miterlimit:10;}
	.st26{opacity:0;fill:none;}
	.st27{fill:#FFFFFF;}
	.st28{fill:#212121;}
	.st29{clip-path:url(#SVGID_30_);fill:url(#SVGID_31_);}
	.st30{fill:#F9F9F9;stroke:#EFEFEF;stroke-miterlimit:10;}
	.st31{clip-path:url(#SVGID_33_);fill:url(#SVGID_34_);}
	.st32{clip-path:url(#SVGID_33_);}
	.st33{fill:url(#SVGID_35_);}
	.st34{fill:#55FFDB;}
	.st35{fill:#008BE9;}
	.st36{clip-path:url(#SVGID_37_);fill:url(#SVGID_38_);}
	.st37{fill:url(#SVGID_39_);}
	.st38{clip-path:url(#SVGID_41_);}
	.st39{clip-path:url(#SVGID_43_);fill:url(#SVGID_44_);}
	.st40{fill:url(#SVGID_45_);}
	.st41{fill:#0F0F0F;}
	.st42{fill:none;stroke:#AFAFAF;stroke-miterlimit:10;}
	.st43{fill:#FFB537;}
	.st44{fill:none;stroke:#FFB537;stroke-width:9;stroke-linecap:round;stroke-linejoin:round;stroke-miterlimit:10;}
	.st45{opacity:0.3;}
	.st46{fill:#3EAC5C;}
	.st47{fill:#627EEA;}
	.st48{clip-path:url(#SVGID_47_);fill:url(#SVGID_48_);}
	.st49{fill:url(#SVGID_49_);}
	.st50{opacity:0.7;}
	.st51{opacity:0.2;}
	.st52{fill:#252525;}
	.st53{fill-rule:evenodd;clip-rule:evenodd;fill:#FFFFFF;}
	.st54{fill:#EDEDED;}
	.st55{fill:url(#SVGID_50_);}
	.st56{fill:url(#SVGID_51_);}
	.st57{fill:url(#SVGID_52_);}
	.st58{fill:url(#SVGID_53_);}
	.st59{fill:url(#SVGID_54_);}
	.st60{fill:url(#SVGID_55_);}
	.st61{fill:url(#SVGID_56_);}
	.st62{fill:url(#SVGID_57_);}
	.st63{fill:#FFFFFF;stroke:#949494;stroke-miterlimit:10;}
	.st64{fill:url(#SVGID_58_);}
	.st65{fill:url(#SVGID_59_);}
	.st66{fill:url(#SVGID_60_);}
	.st67{fill:url(#SVGID_61_);}
	.st68{fill:url(#SVGID_62_);}
	.st69{fill:url(#SVGID_63_);}
	.st70{fill:url(#SVGID_64_);}
	.st71{fill:url(#SVGID_65_);}
	.st72{fill:none;stroke:#000000;stroke-miterlimit:10;}
	.st73{clip-path:url(#SVGID_69_);}
	.st74{clip-path:url(#SVGID_71_);fill:url(#SVGID_72_);}
	.st75{clip-path:url(#SVGID_74_);fill:url(#SVGID_75_);}
	.st76{fill:url(#SVGID_76_);}
	.st77{fill:url(#SVGID_77_);}
	.st78{fill:url(#SVGID_78_);}
	.st79{fill:url(#SVGID_79_);}
	.st80{fill:url(#SVGID_80_);}
	.st81{fill:url(#SVGID_81_);}
	.st82{fill:url(#SVGID_82_);}
	.st83{fill:url(#SVGID_83_);}
	.st84{fill:url(#SVGID_84_);}
	.st85{fill:url(#SVGID_85_);}
	.st86{fill:url(#SVGID_86_);}
	.st87{fill:url(#SVGID_87_);}
	.st88{fill:url(#SVGID_88_);}
	.st89{fill:url(#SVGID_89_);}
	.st90{fill:url(#SVGID_90_);}
	.st91{fill:url(#SVGID_91_);}
	.st92{fill:url(#SVGID_92_);}
	.st93{clip-path:url(#SVGID_94_);fill:url(#SVGID_95_);}
	.st94{fill:url(#SVGID_96_);}
	.st95{fill:#F9F9F9;stroke:#EFEFEF;stroke-width:0.7697;stroke-miterlimit:10;}
	.st96{fill:#F9F9F9;stroke:#EFEFEF;stroke-width:0.7467;stroke-miterlimit:10;}
	.st97{fill:none;stroke:#AFAFAF;stroke-width:0.7467;stroke-miterlimit:10;}
	.st98{fill:none;stroke:#FFB537;stroke-width:6.7202;stroke-linecap:round;stroke-linejoin:round;stroke-miterlimit:10;}
	.st99{clip-path:url(#SVGID_100_);fill:url(#SVGID_101_);}
	.st100{fill:#F9F9F9;stroke:#EFEFEF;stroke-width:0.5207;stroke-miterlimit:10;}
	.st101{fill:url(#SVGID_102_);}
	.st102{fill:url(#SVGID_103_);}
	.st103{fill:url(#SVGID_104_);}
	.st104{fill:url(#SVGID_105_);}
	.st105{fill:url(#SVGID_106_);}
	.st106{fill:url(#SVGID_107_);}
	.st107{fill:url(#SVGID_108_);}
	.st108{fill:url(#SVGID_109_);}
	.st109{fill:url(#SVGID_110_);}
	.st110{fill:url(#SVGID_111_);}
	.st111{fill:url(#SVGID_112_);}
	.st112{fill:url(#SVGID_113_);}
	.st113{fill:url(#SVGID_114_);}
	.st114{fill:url(#SVGID_115_);}
	.st115{fill:url(#SVGID_116_);}
	.st116{fill:url(#SVGID_117_);}
	.st117{fill:#FFFFFF;stroke:#949494;stroke-width:0.637;stroke-miterlimit:10;}
	.st118{fill:url(#SVGID_118_);}
	.st119{fill:url(#SVGID_119_);}
	.st120{fill:url(#SVGID_120_);}
	.st121{fill:url(#SVGID_121_);}
	.st122{fill:url(#SVGID_122_);}
	.st123{fill:url(#SVGID_123_);}
	.st124{fill:url(#SVGID_124_);}
	.st125{fill:url(#SVGID_125_);}
	.st126{fill:none;stroke:#AFAFAF;stroke-width:1.0323;stroke-miterlimit:10;}
	.st127{fill:none;stroke:#FFB537;stroke-width:9.2904;stroke-linecap:round;stroke-linejoin:round;stroke-miterlimit:10;}
	.st128{fill:none;stroke:#3EAC5C;stroke-width:9.25;stroke-miterlimit:10;}
	.st129{fill:none;stroke:#627EEA;stroke-width:9.25;stroke-miterlimit:10;}
</style>
<g>
	<circle class="st46" cx="41.5" cy="41.5" r="41"/>
	<g>
		<path class="st27" d="M15.93,56.57c0.77-0.6,1.46-1.16,2.17-1.68c2.18-1.6,4.34-3.23,6.55-4.77c2.54-1.76,5.18-3.35,7.88-4.85
			c2.78-1.54,5.63-2.94,8.54-4.2c1.39-0.6,2.8-1.15,4.21-1.71c0.71-0.28,1.44-0.52,2.16-0.8c0.12-0.05,0.22-0.18,0.32-0.27
			c-0.02-0.04-0.05-0.08-0.07-0.13c-0.44,0.11-0.88,0.22-1.31,0.34c-1.02,0.27-2.04,0.54-3.05,0.83c-1.27,0.36-2.54,0.71-3.79,1.11
			c-1.7,0.54-3.41,1.09-5.09,1.71c-2.84,1.03-5.63,2.2-8.14,3.92c-0.14,0.09-0.26,0.2-0.4,0.29c-0.12,0.09-0.25,0.18-0.42,0.3
			c-0.04-0.2-0.06-0.37-0.09-0.53c-0.33-1.79-0.3-3.59,0.05-5.37c0.44-2.27,1.36-4.35,2.66-6.27c1.21-1.79,2.7-3.32,4.41-4.63
			c1.77-1.35,3.69-2.41,5.87-2.96c1.26-0.32,2.52-0.6,3.81-0.7c1.58-0.13,3.17-0.29,4.76-0.29c1.6,0,3.2,0.13,4.8,0.29
			c1.23,0.12,2.46,0.34,3.66,0.6c1.58,0.34,3.14,0.74,4.7,1.15c1.53,0.41,3.04,0.86,4.55,1.31c0.67,0.2,1.33,0.45,1.99,0.69
			c0.48,0.17,0.48,0.18,0.26,0.63c-0.57,1.15-1.13,2.31-1.71,3.45c-1.44,2.82-2.97,5.59-4.69,8.24c-1.14,1.76-2.31,3.5-3.57,5.18
			c-1,1.33-2.11,2.59-3.25,3.81c-2.11,2.24-4.65,3.83-7.58,4.79c-2.28,0.75-4.61,1.12-7,1.01c-2.2-0.1-4.32-0.56-6.33-1.51
			c-1.81-0.86-3.35-2.04-4.64-3.56c-0.16-0.19-0.33-0.21-0.55-0.19c-0.99,0.1-1.95,0.37-2.86,0.75c-1.68,0.69-3.34,1.4-4.99,2.15
			C18.48,55.27,17.26,55.92,15.93,56.57z"/>
	</g>
</g>
</svg>
