<?xml version="1.0" encoding="utf-8"?>
<!-- Generator: Adobe Illustrator 24.0.0, SVG Export Plug-In . SVG Version: 6.00 Build 0)  -->
<svg version="1.1" id="Capa_1" xmlns="http://www.w3.org/2000/svg" xmlns:xlink="http://www.w3.org/1999/xlink" x="0px" y="0px"
	 viewBox="0 0 83 83" style="enable-background:new 0 0 83 83;" xml:space="preserve">
<style type="text/css">
	.st0{fill:none;stroke:url(#SVGID_1_);stroke-width:5;stroke-miterlimit:10;}
	.st1{opacity:0.9615;fill:none;stroke:url(#SVGID_2_);stroke-width:4.8077;stroke-miterlimit:10;}
	.st2{opacity:0.9231;fill:none;stroke:url(#SVGID_3_);stroke-width:4.6154;stroke-miterlimit:10;}
	.st3{opacity:0.8846;fill:none;stroke:url(#SVGID_4_);stroke-width:4.4231;stroke-miterlimit:10;}
	.st4{opacity:0.8462;fill:none;stroke:url(#SVGID_5_);stroke-width:4.2308;stroke-miterlimit:10;}
	.st5{opacity:0.8077;fill:none;stroke:url(#SVGID_6_);stroke-width:4.0385;stroke-miterlimit:10;}
	.st6{opacity:0.7692;fill:none;stroke:url(#SVGID_7_);stroke-width:3.8462;stroke-miterlimit:10;}
	.st7{opacity:0.7308;fill:none;stroke:url(#SVGID_8_);stroke-width:3.6538;stroke-miterlimit:10;}
	.st8{opacity:0.6923;fill:none;stroke:url(#SVGID_9_);stroke-width:3.4615;stroke-miterlimit:10;}
	.st9{opacity:0.6538;fill:none;stroke:url(#SVGID_10_);stroke-width:3.2692;stroke-miterlimit:10;}
	.st10{opacity:0.6154;fill:none;stroke:url(#SVGID_11_);stroke-width:3.0769;stroke-miterlimit:10;}
	.st11{opacity:0.5769;fill:none;stroke:url(#SVGID_12_);stroke-width:2.8846;stroke-miterlimit:10;}
	.st12{opacity:0.5385;fill:none;stroke:url(#SVGID_13_);stroke-width:2.6923;stroke-miterlimit:10;}
	.st13{opacity:0.5;fill:none;stroke:url(#SVGID_14_);stroke-width:2.5;stroke-miterlimit:10;}
	.st14{opacity:0.4615;fill:none;stroke:url(#SVGID_15_);stroke-width:2.3077;stroke-miterlimit:10;}
	.st15{opacity:0.4231;fill:none;stroke:url(#SVGID_16_);stroke-width:2.1154;stroke-miterlimit:10;}
	.st16{opacity:0.3846;fill:none;stroke:url(#SVGID_17_);stroke-width:1.9231;stroke-miterlimit:10;}
	.st17{opacity:0.3462;fill:none;stroke:url(#SVGID_18_);stroke-width:1.7308;stroke-miterlimit:10;}
	.st18{opacity:0.3077;fill:none;stroke:url(#SVGID_19_);stroke-width:1.5385;stroke-miterlimit:10;}
	.st19{opacity:0.2692;fill:none;stroke:url(#SVGID_20_);stroke-width:1.3462;stroke-miterlimit:10;}
	.st20{opacity:0.2308;fill:none;stroke:url(#SVGID_21_);stroke-width:1.1538;stroke-miterlimit:10;}
	.st21{opacity:0.1923;fill:none;stroke:url(#SVGID_22_);stroke-width:0.9615;stroke-miterlimit:10;}
	.st22{opacity:0.1538;fill:none;stroke:url(#SVGID_23_);stroke-width:0.7692;stroke-miterlimit:10;}
	.st23{opacity:0.1154;fill:none;stroke:url(#SVGID_24_);stroke-width:0.5769;stroke-miterlimit:10;}
	.st24{opacity:0.0769;fill:none;stroke:url(#SVGID_25_);stroke-width:0.3846;stroke-miterlimit:10;}
	.st25{opacity:0.0385;fill:none;stroke:url(#SVGID_26_);stroke-width:0.1923;stroke-miterlimit:10;}
	.st26{opacity:0;fill:none;}
	.st27{fill:#FFFFFF;}
	.st28{fill:#212121;}
	.st29{clip-path:url(#SVGID_30_);fill:url(#SVGID_31_);}
	.st30{fill:#F9F9F9;stroke:#EFEFEF;stroke-miterlimit:10;}
	.st31{clip-path:url(#SVGID_33_);fill:url(#SVGID_34_);}
	.st32{clip-path:url(#SVGID_33_);}
	.st33{fill:url(#SVGID_35_);}
	.st34{fill:#55FFDB;}
	.st35{fill:#008BE9;}
	.st36{clip-path:url(#SVGID_37_);fill:url(#SVGID_38_);}
	.st37{fill:url(#SVGID_39_);}
	.st38{clip-path:url(#SVGID_41_);}
	.st39{clip-path:url(#SVGID_43_);fill:url(#SVGID_44_);}
	.st40{fill:url(#SVGID_45_);}
	.st41{fill:#0F0F0F;}
	.st42{fill:none;stroke:#AFAFAF;stroke-miterlimit:10;}
	.st43{fill:#FFB537;}
	.st44{fill:none;stroke:#FFB537;stroke-width:9;stroke-linecap:round;stroke-linejoin:round;stroke-miterlimit:10;}
	.st45{opacity:0.3;}
	.st46{fill:#3EAC5C;}
	.st47{fill:#627EEA;}
	.st48{clip-path:url(#SVGID_47_);fill:url(#SVGID_48_);}
	.st49{fill:url(#SVGID_49_);}
	.st50{opacity:0.7;}
	.st51{opacity:0.2;}
	.st52{fill:#252525;}
	.st53{fill-rule:evenodd;clip-rule:evenodd;fill:#FFFFFF;}
	.st54{fill:#EDEDED;}
	.st55{fill:url(#SVGID_50_);}
	.st56{fill:url(#SVGID_51_);}
	.st57{fill:url(#SVGID_52_);}
	.st58{fill:url(#SVGID_53_);}
	.st59{fill:url(#SVGID_54_);}
	.st60{fill:url(#SVGID_55_);}
	.st61{fill:url(#SVGID_56_);}
	.st62{fill:url(#SVGID_57_);}
	.st63{fill:#FFFFFF;stroke:#949494;stroke-miterlimit:10;}
	.st64{fill:url(#SVGID_58_);}
	.st65{fill:url(#SVGID_59_);}
	.st66{fill:url(#SVGID_60_);}
	.st67{fill:url(#SVGID_61_);}
	.st68{fill:url(#SVGID_62_);}
	.st69{fill:url(#SVGID_63_);}
	.st70{fill:url(#SVGID_64_);}
	.st71{fill:url(#SVGID_65_);}
	.st72{fill:none;stroke:#000000;stroke-miterlimit:10;}
	.st73{clip-path:url(#SVGID_69_);}
	.st74{clip-path:url(#SVGID_71_);fill:url(#SVGID_72_);}
	.st75{clip-path:url(#SVGID_74_);fill:url(#SVGID_75_);}
	.st76{fill:url(#SVGID_76_);}
	.st77{fill:url(#SVGID_77_);}
	.st78{fill:url(#SVGID_78_);}
	.st79{fill:url(#SVGID_79_);}
	.st80{fill:url(#SVGID_80_);}
	.st81{fill:url(#SVGID_81_);}
	.st82{fill:url(#SVGID_82_);}
	.st83{fill:url(#SVGID_83_);}
	.st84{fill:url(#SVGID_84_);}
	.st85{fill:url(#SVGID_85_);}
	.st86{fill:url(#SVGID_86_);}
	.st87{fill:url(#SVGID_87_);}
	.st88{fill:url(#SVGID_88_);}
	.st89{fill:url(#SVGID_89_);}
	.st90{fill:url(#SVGID_90_);}
	.st91{fill:url(#SVGID_91_);}
	.st92{fill:url(#SVGID_92_);}
	.st93{clip-path:url(#SVGID_94_);fill:url(#SVGID_95_);}
	.st94{fill:url(#SVGID_96_);}
	.st95{fill:#F9F9F9;stroke:#EFEFEF;stroke-width:0.7697;stroke-miterlimit:10;}
	.st96{fill:#F9F9F9;stroke:#EFEFEF;stroke-width:0.7467;stroke-miterlimit:10;}
	.st97{fill:none;stroke:#AFAFAF;stroke-width:0.7467;stroke-miterlimit:10;}
	.st98{fill:none;stroke:#FFB537;stroke-width:6.7202;stroke-linecap:round;stroke-linejoin:round;stroke-miterlimit:10;}
	.st99{clip-path:url(#SVGID_100_);fill:url(#SVGID_101_);}
	.st100{fill:#F9F9F9;stroke:#EFEFEF;stroke-width:0.5207;stroke-miterlimit:10;}
	.st101{fill:url(#SVGID_102_);}
	.st102{fill:url(#SVGID_103_);}
	.st103{fill:url(#SVGID_104_);}
	.st104{fill:url(#SVGID_105_);}
	.st105{fill:url(#SVGID_106_);}
	.st106{fill:url(#SVGID_107_);}
	.st107{fill:url(#SVGID_108_);}
	.st108{fill:url(#SVGID_109_);}
	.st109{fill:url(#SVGID_110_);}
	.st110{fill:url(#SVGID_111_);}
	.st111{fill:url(#SVGID_112_);}
	.st112{fill:url(#SVGID_113_);}
	.st113{fill:url(#SVGID_114_);}
	.st114{fill:url(#SVGID_115_);}
	.st115{fill:url(#SVGID_116_);}
	.st116{fill:url(#SVGID_117_);}
	.st117{fill:#FFFFFF;stroke:#949494;stroke-width:0.637;stroke-miterlimit:10;}
	.st118{fill:url(#SVGID_118_);}
	.st119{fill:url(#SVGID_119_);}
	.st120{fill:url(#SVGID_120_);}
	.st121{fill:url(#SVGID_121_);}
	.st122{fill:url(#SVGID_122_);}
	.st123{fill:url(#SVGID_123_);}
	.st124{fill:url(#SVGID_124_);}
	.st125{fill:url(#SVGID_125_);}
	.st126{fill:none;stroke:#AFAFAF;stroke-width:1.0323;stroke-miterlimit:10;}
	.st127{fill:none;stroke:#FFB537;stroke-width:9.2904;stroke-linecap:round;stroke-linejoin:round;stroke-miterlimit:10;}
	.st128{fill:none;stroke:#3EAC5C;stroke-width:9.25;stroke-miterlimit:10;}
	.st129{fill:none;stroke:#627EEA;stroke-width:9.25;stroke-miterlimit:10;}
</style>
<g>
	<g>
		<g>
			<circle class="st43" cx="41.5" cy="41.5" r="41"/>
		</g>
		<g>
			<path class="st27" d="M38.76,24.06c1.21-0.05,2.38-0.09,3.59-0.14c0-1.11,0.01-2.2,0.01-3.3c0-1.19,0-2.39,0-3.58
				c0-0.26,0.09-0.41,0.39-0.41c1.24,0.01,2.48-0.01,3.73-0.01c0.15,0,0.31,0.05,0.36,0.06c0.05,1.25,0.11,2.46,0.13,3.66
				c0.02,1.11,0,2.23-0.03,3.34c-0.01,0.36,0.12,0.48,0.47,0.54c1.3,0.2,2.62,0.38,3.9,0.69c2.01,0.49,3.84,1.38,5.2,3
				c0.97,1.16,1.42,2.57,1.56,4.08c0.19,2.02-0.1,3.92-1.36,5.6c-0.65,0.86-1.5,1.46-2.48,2.06c0.23,0.08,0.4,0.15,0.58,0.21
				c1.3,0.38,2.49,0.93,3.54,1.83c1.19,1.03,1.88,2.32,2.18,3.82c0.46,2.38,0.26,4.73-0.62,6.98c-0.54,1.38-1.42,2.55-2.64,3.45
				c-1.63,1.21-3.48,1.89-5.45,2.22c-1.47,0.25-2.96,0.39-4.45,0.55c-0.35,0.04-0.47,0.13-0.46,0.51c0.01,2.35-0.01,4.71-0.02,7.12
				c-1.53,0-3.03,0-4.59,0.01c0-2.52,0-4.99,0-7.5c-1.17-0.02-2.29-0.04-3.4-0.03c-0.08,0-0.23,0.22-0.23,0.33
				c-0.01,2.23-0.01,4.46,0,6.69c0,0.37-0.05,0.51-0.5,0.49c-1.21-0.05-2.42-0.01-3.62,0c-0.32,0-0.5-0.02-0.5-0.46
				c0.02-2.26-0.02-4.53,0-6.79c0-0.36-0.12-0.38-0.4-0.38c-1.32,0-2.64-0.02-3.96-0.03c-1.6-0.01-3.2-0.01-4.86-0.02
				c0.11-0.65,0.2-1.26,0.31-1.87c0.19-1.09,0.38-2.17,0.56-3.25c0.05-0.29,0.15-0.37,0.47-0.36c1.01,0.03,2.01,0.03,3.02-0.01
				c1.03-0.04,1.59-0.63,1.61-1.66c0.02-1.43,0.03-2.86,0.03-4.29c0-3.47,0-6.94,0-10.41c0-1.84,0.01-3.67,0-5.51
				c0-1.14-0.86-2.11-1.99-2.19c-1.11-0.07-2.23-0.07-3.34-0.08c-0.59,0-0.62-0.01-0.62-0.59c0-1.43,0.02-2.85,0.03-4.32
				c3.07,0.01,6.1,0.01,9.22,0.02c0.01-2.53,0.02-5.01,0.02-7.54c1.43,0,2.82,0,4.22,0c0.28,0,0.38,0.11,0.38,0.4
				c-0.01,2.19-0.01,4.37-0.01,6.56C38.72,23.73,38.74,23.87,38.76,24.06z M38.78,51.71c-0.01,0-0.02,0-0.03,0
				c0.01,0.22,0.02,0.44,0.02,0.66c0,0.86,0,0.89,0.83,0.9c2.75,0.03,5.5,0.06,8.17-0.75c1.18-0.36,2.27-0.89,3.04-1.89
				c1.39-1.8,0.91-4.72-1.18-5.97c-1.6-0.95-3.37-1.28-5.18-1.4c-1.67-0.11-3.36-0.07-5.04-0.1c-0.62-0.01-0.65,0.03-0.64,0.67
				C38.78,46.46,38.78,49.09,38.78,51.71z M38.81,38.56c0.93,0.01,1.82,0.03,2.71,0.01c1.93-0.05,3.85-0.19,5.64-1.02
				c2.25-1.04,2.82-3.18,1.99-5.25c-0.52-1.29-1.65-1.9-2.87-2.29c-2.43-0.78-4.94-0.65-7.45-0.55
				C38.82,32.48,38.81,35.48,38.81,38.56z"/>
		</g>
	</g>
</g>
</svg>
