<?xml version="1.0" encoding="utf-8"?>
<!-- Generator: Adobe Illustrator 24.0.0, SVG Export Plug-In . SVG Version: 6.00 Build 0)  -->
<svg version="1.1" id="Capa_1" xmlns="http://www.w3.org/2000/svg" xmlns:xlink="http://www.w3.org/1999/xlink" x="0px" y="0px"
	 viewBox="0 0 67 67" style="enable-background:new 0 0 67 67;" xml:space="preserve">
<style type="text/css">
	.st0{fill:none;stroke:url(#SVGID_1_);stroke-width:5;stroke-miterlimit:10;}
	.st1{opacity:0.9615;fill:none;stroke:url(#SVGID_2_);stroke-width:4.8077;stroke-miterlimit:10;}
	.st2{opacity:0.9231;fill:none;stroke:url(#SVGID_3_);stroke-width:4.6154;stroke-miterlimit:10;}
	.st3{opacity:0.8846;fill:none;stroke:url(#SVGID_4_);stroke-width:4.4231;stroke-miterlimit:10;}
	.st4{opacity:0.8462;fill:none;stroke:url(#SVGID_5_);stroke-width:4.2308;stroke-miterlimit:10;}
	.st5{opacity:0.8077;fill:none;stroke:url(#SVGID_6_);stroke-width:4.0385;stroke-miterlimit:10;}
	.st6{opacity:0.7692;fill:none;stroke:url(#SVGID_7_);stroke-width:3.8462;stroke-miterlimit:10;}
	.st7{opacity:0.7308;fill:none;stroke:url(#SVGID_8_);stroke-width:3.6538;stroke-miterlimit:10;}
	.st8{opacity:0.6923;fill:none;stroke:url(#SVGID_9_);stroke-width:3.4615;stroke-miterlimit:10;}
	.st9{opacity:0.6538;fill:none;stroke:url(#SVGID_10_);stroke-width:3.2692;stroke-miterlimit:10;}
	.st10{opacity:0.6154;fill:none;stroke:url(#SVGID_11_);stroke-width:3.0769;stroke-miterlimit:10;}
	.st11{opacity:0.5769;fill:none;stroke:url(#SVGID_12_);stroke-width:2.8846;stroke-miterlimit:10;}
	.st12{opacity:0.5385;fill:none;stroke:url(#SVGID_13_);stroke-width:2.6923;stroke-miterlimit:10;}
	.st13{opacity:0.5;fill:none;stroke:url(#SVGID_14_);stroke-width:2.5;stroke-miterlimit:10;}
	.st14{opacity:0.4615;fill:none;stroke:url(#SVGID_15_);stroke-width:2.3077;stroke-miterlimit:10;}
	.st15{opacity:0.4231;fill:none;stroke:url(#SVGID_16_);stroke-width:2.1154;stroke-miterlimit:10;}
	.st16{opacity:0.3846;fill:none;stroke:url(#SVGID_17_);stroke-width:1.9231;stroke-miterlimit:10;}
	.st17{opacity:0.3462;fill:none;stroke:url(#SVGID_18_);stroke-width:1.7308;stroke-miterlimit:10;}
	.st18{opacity:0.3077;fill:none;stroke:url(#SVGID_19_);stroke-width:1.5385;stroke-miterlimit:10;}
	.st19{opacity:0.2692;fill:none;stroke:url(#SVGID_20_);stroke-width:1.3462;stroke-miterlimit:10;}
	.st20{opacity:0.2308;fill:none;stroke:url(#SVGID_21_);stroke-width:1.1538;stroke-miterlimit:10;}
	.st21{opacity:0.1923;fill:none;stroke:url(#SVGID_22_);stroke-width:0.9615;stroke-miterlimit:10;}
	.st22{opacity:0.1538;fill:none;stroke:url(#SVGID_23_);stroke-width:0.7692;stroke-miterlimit:10;}
	.st23{opacity:0.1154;fill:none;stroke:url(#SVGID_24_);stroke-width:0.5769;stroke-miterlimit:10;}
	.st24{opacity:0.0769;fill:none;stroke:url(#SVGID_25_);stroke-width:0.3846;stroke-miterlimit:10;}
	.st25{opacity:0.0385;fill:none;stroke:url(#SVGID_26_);stroke-width:0.1923;stroke-miterlimit:10;}
	.st26{opacity:0;fill:none;}
	.st27{fill:#FFFFFF;}
	.st28{fill:#212121;}
	.st29{clip-path:url(#SVGID_30_);fill:url(#SVGID_31_);}
	.st30{fill:#F9F9F9;stroke:#EFEFEF;stroke-miterlimit:10;}
	.st31{clip-path:url(#SVGID_33_);fill:url(#SVGID_34_);}
	.st32{clip-path:url(#SVGID_33_);}
	.st33{fill:url(#SVGID_35_);}
	.st34{fill:#55FFDB;}
	.st35{fill:#008BE9;}
	.st36{clip-path:url(#SVGID_37_);fill:url(#SVGID_38_);}
	.st37{fill:url(#SVGID_39_);}
	.st38{clip-path:url(#SVGID_41_);}
	.st39{clip-path:url(#SVGID_43_);fill:url(#SVGID_44_);}
	.st40{fill:url(#SVGID_45_);}
	.st41{fill:#0F0F0F;}
	.st42{fill:none;stroke:#AFAFAF;stroke-miterlimit:10;}
	.st43{fill:#FFB537;}
	.st44{fill:none;stroke:#FFB537;stroke-width:9;stroke-linecap:round;stroke-linejoin:round;stroke-miterlimit:10;}
	.st45{opacity:0.3;}
	.st46{fill:#3EAC5C;}
	.st47{fill:#627EEA;}
	.st48{clip-path:url(#SVGID_47_);fill:url(#SVGID_48_);}
	.st49{fill:url(#SVGID_49_);}
	.st50{opacity:0.7;}
	.st51{opacity:0.2;}
	.st52{fill:#252525;}
	.st53{fill-rule:evenodd;clip-rule:evenodd;fill:#FFFFFF;}
	.st54{fill:#EDEDED;}
	.st55{fill:url(#SVGID_50_);}
	.st56{fill:url(#SVGID_51_);}
	.st57{fill:url(#SVGID_52_);}
	.st58{fill:url(#SVGID_53_);}
	.st59{fill:url(#SVGID_54_);}
	.st60{fill:url(#SVGID_55_);}
	.st61{fill:url(#SVGID_56_);}
	.st62{fill:url(#SVGID_57_);}
	.st63{fill:#FFFFFF;stroke:#949494;stroke-miterlimit:10;}
	.st64{fill:url(#SVGID_58_);}
	.st65{fill:url(#SVGID_59_);}
	.st66{fill:url(#SVGID_60_);}
	.st67{fill:url(#SVGID_61_);}
	.st68{fill:url(#SVGID_62_);}
	.st69{fill:url(#SVGID_63_);}
	.st70{fill:url(#SVGID_64_);}
	.st71{fill:url(#SVGID_65_);}
	.st72{fill:none;stroke:#000000;stroke-miterlimit:10;}
	.st73{clip-path:url(#SVGID_69_);}
	.st74{clip-path:url(#SVGID_71_);fill:url(#SVGID_72_);}
	.st75{clip-path:url(#SVGID_74_);fill:url(#SVGID_75_);}
	.st76{fill:url(#SVGID_76_);}
	.st77{fill:url(#SVGID_77_);}
	.st78{fill:url(#SVGID_78_);}
	.st79{fill:url(#SVGID_79_);}
	.st80{fill:url(#SVGID_80_);}
	.st81{fill:url(#SVGID_81_);}
	.st82{fill:url(#SVGID_82_);}
	.st83{fill:url(#SVGID_83_);}
	.st84{fill:url(#SVGID_84_);}
	.st85{fill:url(#SVGID_85_);}
	.st86{fill:url(#SVGID_86_);}
	.st87{fill:url(#SVGID_87_);}
	.st88{fill:url(#SVGID_88_);}
	.st89{fill:url(#SVGID_89_);}
	.st90{fill:url(#SVGID_90_);}
	.st91{fill:url(#SVGID_91_);}
	.st92{fill:url(#SVGID_92_);}
	.st93{clip-path:url(#SVGID_94_);fill:url(#SVGID_95_);}
	.st94{fill:url(#SVGID_96_);}
	.st95{fill:#F9F9F9;stroke:#EFEFEF;stroke-width:0.7697;stroke-miterlimit:10;}
	.st96{fill:#F9F9F9;stroke:#EFEFEF;stroke-width:0.7467;stroke-miterlimit:10;}
	.st97{fill:none;stroke:#AFAFAF;stroke-width:0.7467;stroke-miterlimit:10;}
	.st98{fill:none;stroke:#FFB537;stroke-width:6.7202;stroke-linecap:round;stroke-linejoin:round;stroke-miterlimit:10;}
	.st99{clip-path:url(#SVGID_100_);fill:url(#SVGID_101_);}
	.st100{fill:#F9F9F9;stroke:#EFEFEF;stroke-width:0.5207;stroke-miterlimit:10;}
	.st101{fill:url(#SVGID_102_);}
	.st102{fill:url(#SVGID_103_);}
	.st103{fill:url(#SVGID_104_);}
	.st104{fill:url(#SVGID_105_);}
	.st105{fill:url(#SVGID_106_);}
	.st106{fill:url(#SVGID_107_);}
	.st107{fill:url(#SVGID_108_);}
	.st108{fill:url(#SVGID_109_);}
	.st109{fill:url(#SVGID_110_);}
	.st110{fill:url(#SVGID_111_);}
	.st111{fill:url(#SVGID_112_);}
	.st112{fill:url(#SVGID_113_);}
	.st113{fill:url(#SVGID_114_);}
	.st114{fill:url(#SVGID_115_);}
	.st115{fill:url(#SVGID_116_);}
	.st116{fill:url(#SVGID_117_);}
	.st117{fill:#FFFFFF;stroke:#949494;stroke-width:0.637;stroke-miterlimit:10;}
	.st118{fill:url(#SVGID_118_);}
	.st119{fill:url(#SVGID_119_);}
	.st120{fill:url(#SVGID_120_);}
	.st121{fill:url(#SVGID_121_);}
	.st122{fill:url(#SVGID_122_);}
	.st123{fill:url(#SVGID_123_);}
	.st124{fill:url(#SVGID_124_);}
	.st125{fill:url(#SVGID_125_);}
	.st126{fill:none;stroke:#AFAFAF;stroke-width:1.0323;stroke-miterlimit:10;}
	.st127{fill:none;stroke:#FFB537;stroke-width:9.2904;stroke-linecap:round;stroke-linejoin:round;stroke-miterlimit:10;}
	.st128{fill:none;stroke:#3EAC5C;stroke-width:9.25;stroke-miterlimit:10;}
	.st129{fill:none;stroke:#627EEA;stroke-width:9.25;stroke-miterlimit:10;}
</style>
<g>
	<linearGradient id="SVGID_1_" gradientUnits="userSpaceOnUse" x1="-21.1166" y1="-21.9184" x2="76.6844" y2="78.0805">
		<stop  offset="0" style="stop-color:#55FFDB"/>
		<stop  offset="1" style="stop-color:#008BE9"/>
	</linearGradient>
	<path style="fill:url(#SVGID_1_);" d="M17.43,36.1c-0.32-0.57-0.69-1.02-0.83-1.54c-0.22-0.82,0.21-1.61,0.91-1.99
		c0.72-0.39,1.56-0.32,2.19,0.26c0.78,0.73,1.52,1.5,2.27,2.26c0.3,0.3,0.57,0.63,0.84,0.93c0.72-0.74,1.37-1.42,2.08-2.15
		c-0.32-0.33-0.71-0.75-1.12-1.15c-2.52-2.52-5.05-5.04-7.56-7.57c-0.27-0.27-0.51-0.35-0.89-0.28c-7.41,1.38-14.18-4.1-14.28-11.64
		c-0.02-1.29,0.26-2.61,0.59-3.86C2.04,7.79,3.6,7.38,4.85,8.43c1.5,1.25,2.98,2.53,4.44,3.77c0.96-0.98,1.89-1.94,2.89-2.96
		C11.41,8.32,10.56,7.31,9.7,6.3C9.25,5.77,8.77,5.24,8.34,4.69C7.41,3.53,7.97,2.05,9.39,1.6c2.91-0.91,5.75-0.79,8.55,0.42
		c5.04,2.2,7.93,7.56,6.99,12.98c-0.1,0.6,0.02,0.98,0.45,1.41c2.69,2.64,5.34,5.31,8,7.98c0.18,0.18,0.33,0.4,0.55,0.68
		c1.19-1.21,2.27-2.31,3.36-3.41c2.82-2.82,5.65-5.64,8.45-8.48c0.28-0.28,0.48-0.69,0.58-1.07c0.26-1.03,0.44-2.09,0.64-3.14
		c0.13-0.68,0.49-1.16,1.07-1.53c3.15-1.99,6.29-3.99,9.44-5.99c1.09-0.69,1.88-0.61,2.81,0.31c1.65,1.65,3.31,3.3,4.96,4.96
		c0.92,0.93,1.01,1.71,0.32,2.81c-1.98,3.13-3.98,6.25-5.96,9.39c-0.4,0.64-0.92,1.03-1.68,1.15c-0.87,0.14-1.73,0.38-2.61,0.5
		c-0.74,0.1-1.28,0.45-1.8,0.97c-3.69,3.72-7.4,7.41-11.11,11.12c-0.11,0.11-0.22,0.23-0.42,0.44c1.12,1.08,2.22,2.14,3.31,3.21
		c1.86,1.84,3.71,3.69,5.56,5.56c0.26,0.26,0.47,0.33,0.84,0.26c7.72-1.45,14.7,4.59,14.28,12.42c-0.07,1.22-0.45,2.44-0.83,3.62
		c-0.33,1.02-1.9,1.29-2.82,0.51c-1.44-1.23-2.89-2.45-4.33-3.67c-0.09-0.08-0.19-0.15-0.24-0.19c-0.97,0.97-1.91,1.93-2.91,2.93
		c0.74,0.88,1.56,1.84,2.38,2.8c0.48,0.57,0.98,1.12,1.44,1.71c0.95,1.2,0.51,2.65-0.93,3.13c-8.73,2.89-17.36-4.73-15.59-13.75
		c0.04-0.22,0-0.55-0.15-0.69c-2.91-2.93-5.83-5.85-8.76-8.77c-0.04-0.04-0.1-0.07-0.1-0.07c-0.69,0.66-1.37,1.32-2.19,2.1
		c0.65,0.6,1.32,1.2,1.97,1.82c0.41,0.39,0.81,0.79,1.2,1.19c0.75,0.77,0.77,1.92,0.06,2.67c-0.69,0.74-1.86,0.76-2.67,0.05
		c-0.15-0.13-0.3-0.27-0.5-0.45c-0.15,0.14-0.29,0.27-0.43,0.4c-4.46,4.46-8.9,8.94-13.39,13.37c-4.83,4.77-13.06,3.03-15.47-3.31
		c-1.43-3.77-0.73-7.26,2.09-10.16c4.4-4.51,8.9-8.94,13.36-13.4C17.28,36.27,17.38,36.15,17.43,36.1z M58.42,5.34
		c-2.56,1.63-5.09,3.23-7.61,4.86c-0.18,0.12-0.3,0.41-0.36,0.64c-0.22,1-0.38,2.02-0.63,3.01c-0.12,0.45-0.33,0.93-0.64,1.25
		c-7.11,7.14-14.24,14.26-21.36,21.38c-0.73,0.73-1.46,1.47-2.1,2.11c0.92,0.95,1.78,1.85,2.66,2.77c1.14-1.15,2.27-2.29,3.41-3.43
		c6.68-6.68,13.36-13.37,20.06-20.03c0.36-0.36,0.9-0.59,1.41-0.73c0.97-0.26,1.97-0.39,2.95-0.63c0.26-0.06,0.55-0.26,0.69-0.47
		c0.86-1.29,1.68-2.61,2.51-3.91c0.76-1.2,1.52-2.4,2.25-3.55C60.56,7.49,59.51,6.44,58.42,5.34z M28.25,46.87
		c-2.73-2.73-5.4-5.4-8.08-8.09c-0.01,0.01-0.07,0.04-0.11,0.08c-4.55,4.54-9.11,9.06-13.63,13.63c-1.4,1.42-1.95,3.19-1.49,5.17
		c0.51,2.2,1.86,3.69,4.04,4.3c2.13,0.6,4.03,0.09,5.61-1.47c2.48-2.45,4.93-4.92,7.4-7.39C24.09,51.01,26.19,48.92,28.25,46.87z
		 M35.81,39.36c0.07,0.07,0.14,0.17,0.22,0.25c3.09,3.09,6.16,6.2,9.28,9.26c0.82,0.81,1.09,1.61,0.75,2.75
		c-1.44,4.84,1.7,9.71,6.7,10.5c0.24,0.04,0.49,0.03,0.87,0.05c-0.99-1.16-1.87-2.21-2.75-3.25c-0.83-0.98-0.82-1.95,0.07-2.85
		c1.72-1.73,3.44-3.46,5.17-5.17c0.84-0.84,1.85-0.88,2.76-0.12c0.97,0.81,1.93,1.64,2.9,2.46c0.11,0.09,0.23,0.17,0.44,0.31
		c-0.04-0.42-0.05-0.72-0.1-1.01c-0.93-5.01-5.78-7.96-10.65-6.48c-0.93,0.28-1.67,0.11-2.36-0.59c-2.28-2.31-4.58-4.59-6.87-6.89
		c-0.95-0.95-1.88-1.92-2.77-2.82C38.2,37.01,37.01,38.18,35.81,39.36z M4.82,13.37c0.02,0.34,0.02,0.52,0.04,0.7
		c0.66,5.11,5.64,8.35,10.58,6.87c0.96-0.29,1.75-0.19,2.48,0.55c2.32,2.35,4.67,4.68,6.99,7.02c0.9,0.91,1.78,1.85,2.63,2.73
		c1.28-1.27,2.46-2.44,3.66-3.63c-0.08-0.09-0.16-0.2-0.26-0.3c-3.09-3.09-6.17-6.2-9.28-9.26c-0.8-0.78-1.03-1.58-0.7-2.66
		c1.23-3.99-0.76-8.26-4.58-9.93c-0.89-0.39-1.83-0.64-2.94-0.66c0.2,0.26,0.31,0.42,0.44,0.57c0.78,0.92,1.57,1.84,2.35,2.76
		c0.72,0.87,0.72,1.88-0.06,2.67c-1.75,1.78-3.52,3.55-5.3,5.3c-0.85,0.83-1.84,0.82-2.76,0.04C7.06,15.26,6,14.37,4.82,13.37z"/>
	<linearGradient id="SVGID_2_" gradientUnits="userSpaceOnUse" x1="-39.3503" y1="-4.0854" x2="58.4507" y2="95.9135">
		<stop  offset="0" style="stop-color:#55FFDB"/>
		<stop  offset="1" style="stop-color:#008BE9"/>
	</linearGradient>
	<path style="fill:url(#SVGID_2_);" d="M8.42,56.56c0.22-0.43,0.35-0.96,0.68-1.29c2.19-2.22,4.42-4.41,6.63-6.61
		c1-0.99,1.97-2.01,2.97-3.01c0.84-0.83,1.98-0.85,2.75-0.08c0.76,0.76,0.74,1.92-0.09,2.75c-3.17,3.18-6.35,6.35-9.53,9.53
		c-0.62,0.62-1.33,0.81-2.15,0.47C8.97,58.03,8.54,57.39,8.42,56.56z"/>
</g>
</svg>
