<?xml version="1.0" encoding="utf-8"?>
<!-- Generator: Adobe Illustrator 24.0.0, SVG Export Plug-In . SVG Version: 6.00 Build 0)  -->
<svg version="1.1" id="Capa_1" xmlns="http://www.w3.org/2000/svg" xmlns:xlink="http://www.w3.org/1999/xlink" x="0px" y="0px"
	 viewBox="0 0 85.91 85.91" style="enable-background:new 0 0 85.91 85.91;" xml:space="preserve">
<style type="text/css">
	.st0{fill:#55FFDB;}
	.st1{fill:#0F0F0F;}
</style>
<g>
	<circle class="st0" cx="42.95" cy="42.95" r="41.41"/>
	<g>
		<g>
			<path class="st1" d="M42.95,65.08c-12.2,0-22.13-9.93-22.13-22.13s9.93-22.13,22.13-22.13s22.13,9.93,22.13,22.13
				S55.16,65.08,42.95,65.08z M42.95,22.82c-11.1,0-20.13,9.03-20.13,20.13s9.03,20.13,20.13,20.13s20.13-9.03,20.13-20.13
				S54.05,22.82,42.95,22.82z"/>
		</g>
		<g>
			<path class="st1" d="M42.95,71.23c-15.59,0-28.28-12.69-28.28-28.28s12.69-28.28,28.28-28.28s28.28,12.69,28.28,28.28
				S58.55,71.23,42.95,71.23z M42.95,16.67c-14.49,0-26.28,11.79-26.28,26.28s11.79,26.28,26.28,26.28s26.28-11.79,26.28-26.28
				S57.45,16.67,42.95,16.67z"/>
		</g>
		<g>
			<g>
				<path class="st1" d="M42.9,55.46c-7.08,0-12.83-5.76-12.83-12.83s5.76-12.83,12.83-12.83c3.43,0,6.65,1.33,9.07,3.76
					c0.39,0.39,0.39,1.02,0,1.41c-0.39,0.39-1.02,0.39-1.41,0c-2.05-2.05-4.77-3.17-7.66-3.17c-5.97,0-10.83,4.86-10.83,10.83
					s4.86,10.83,10.83,10.83c2.99,0,5.77-1.19,7.83-3.35c0.38-0.4,1.02-0.41,1.41-0.03c0.4,0.38,0.41,1.01,0.03,1.41
					C49.74,54.05,46.44,55.46,42.9,55.46z"/>
			</g>
			<g>
				<path class="st1" d="M39.34,32.34c-0.55,0-1-0.45-1-1v-5.62c0-0.55,0.45-1,1-1s1,0.45,1,1v5.62
					C40.34,31.89,39.9,32.34,39.34,32.34z"/>
			</g>
			<g>
				<path class="st1" d="M45.26,31.73c-0.55,0-1-0.45-1-1v-5.01c0-0.55,0.45-1,1-1s1,0.45,1,1v5.01
					C46.26,31.28,45.81,31.73,45.26,31.73z"/>
			</g>
			<g>
				<path class="st1" d="M39.34,60.23c-0.55,0-1-0.45-1-1v-5.31c0-0.55,0.45-1,1-1s1,0.45,1,1v5.31
					C40.34,59.78,39.9,60.23,39.34,60.23z"/>
			</g>
			<g>
				<path class="st1" d="M45.26,60.23c-0.55,0-1-0.45-1-1v-4.77c0-0.55,0.45-1,1-1s1,0.45,1,1v4.77
					C46.26,59.78,45.81,60.23,45.26,60.23z"/>
			</g>
		</g>
	</g>
</g>
</svg>
