<?xml version="1.0" encoding="utf-8"?>
<!-- Generator: Adobe Illustrator 24.0.0, SVG Export Plug-In . SVG Version: 6.00 Build 0)  -->
<svg version="1.1" id="Capa_1" xmlns="http://www.w3.org/2000/svg" xmlns:xlink="http://www.w3.org/1999/xlink" x="0px" y="0px"
	 viewBox="0 0 70 70" style="enable-background:new 0 0 70 70;" xml:space="preserve">
<style type="text/css">
	.st0{fill:#008BE9;}
	.st1{fill-rule:evenodd;clip-rule:evenodd;fill:#FFFFFF;}
	.st2{fill:#FFFFFF;}
</style>
<g>
	<path class="st2" d="M35,38.56c-5.62-5.22-11.2-10.41-16.82-15.63c0.75-0.57,1.57-0.93,2.45-1.12c0.5-0.11,1.03-0.18,1.54-0.18
		c8.56-0.01,17.12-0.01,25.68-0.01c1.45,0,2.75,0.45,3.98,1.3C46.2,28.15,40.61,33.35,35,38.56z"/>
	<path class="st2" d="M18.18,47.06c3.77-3.5,7.51-6.98,11.29-10.49c1.84,1.71,3.67,3.41,5.53,5.14c1.84-1.7,3.67-3.41,5.53-5.14
		c3.76,3.5,7.51,6.98,11.29,10.49c-0.79,0.59-1.65,0.96-2.58,1.15c-0.49,0.1-1,0.16-1.5,0.16c-8.49,0.01-16.99,0.01-25.48,0.01
		c-1.35,0-2.59-0.38-3.74-1.09C18.41,47.23,18.31,47.15,18.18,47.06z"/>
	<path class="st2" d="M42.22,34.99c3.76-3.5,7.48-6.95,11.23-10.44c0.66,0.9,1.07,1.87,1.23,2.93c0.08,0.51,0.11,1.03,0.12,1.55
		c0.01,3.97,0,7.95,0.01,11.92c0,1.49-0.31,2.88-1.12,4.15c-0.05,0.07-0.1,0.15-0.15,0.22c-0.02,0.03-0.05,0.05-0.1,0.1
		C49.7,41.95,45.97,38.48,42.22,34.99z"/>
	<path class="st2" d="M15.19,28.78c0-1.36,0.34-2.63,1.05-3.79c0.07-0.11,0.14-0.21,0.21-0.32c0.02-0.03,0.05-0.05,0.11-0.1
		c3.74,3.48,7.45,6.93,11.21,10.42c-3.75,3.48-7.48,6.95-11.23,10.44c-0.63-0.84-1.03-1.76-1.2-2.76"/>
</g>
</svg>
