<?xml version="1.0" encoding="utf-8"?>
<!-- Generator: Adobe Illustrator 24.0.0, SVG Export Plug-In . SVG Version: 6.00 Build 0)  -->
<svg version="1.1" id="Capa_1" xmlns="http://www.w3.org/2000/svg" xmlns:xlink="http://www.w3.org/1999/xlink" x="0px" y="0px"
	 viewBox="0 0 90 90" style="enable-background:new 0 0 90 90;" xml:space="preserve">
<style type="text/css">
	.st0{fill:#008BE9;}
	.st1{fill-rule:evenodd;clip-rule:evenodd;fill:#FFFFFF;}
	.st2{fill:#FFFFFF;}
</style>
<g>
	<g>
		<path class="st1" d="M35.86,45.54v34c0,0.49,0.4,0.89,0.89,0.89h12.63c0.49,0,0.89-0.4,0.89-0.89V44.98h9.15
			c0.46,0,0.84-0.35,0.88-0.81l0.88-10.41c0.04-0.52-0.36-0.96-0.88-0.96H50.26v-7.39c0-1.73,1.4-3.13,3.13-3.13h7.05
			c0.49,0,0.89-0.4,0.89-0.89V10.98c0-0.49-0.4-0.89-0.89-0.89H48.53c-7,0-12.67,5.67-12.67,12.67V32.8h-6.31
			c-0.49,0-0.89,0.4-0.89,0.89V44.1c0,0.49,0.4,0.89,0.89,0.89h6.31V45.54z"/>
	</g>
</g>
</svg>
