<?xml version="1.0" encoding="utf-8"?>
<!-- Generator: Adobe Illustrator 24.0.0, SVG Export Plug-In . SVG Version: 6.00 Build 0)  -->
<svg version="1.1" id="Capa_1" xmlns="http://www.w3.org/2000/svg" xmlns:xlink="http://www.w3.org/1999/xlink" x="0px" y="0px"
	 viewBox="0 0 67 67" style="enable-background:new 0 0 67 67;" xml:space="preserve">
<style type="text/css">
	.st0{fill:none;stroke:url(#SVGID_1_);stroke-width:5;stroke-miterlimit:10;}
	.st1{opacity:0.9615;fill:none;stroke:url(#SVGID_2_);stroke-width:4.8077;stroke-miterlimit:10;}
	.st2{opacity:0.9231;fill:none;stroke:url(#SVGID_3_);stroke-width:4.6154;stroke-miterlimit:10;}
	.st3{opacity:0.8846;fill:none;stroke:url(#SVGID_4_);stroke-width:4.4231;stroke-miterlimit:10;}
	.st4{opacity:0.8462;fill:none;stroke:url(#SVGID_5_);stroke-width:4.2308;stroke-miterlimit:10;}
	.st5{opacity:0.8077;fill:none;stroke:url(#SVGID_6_);stroke-width:4.0385;stroke-miterlimit:10;}
	.st6{opacity:0.7692;fill:none;stroke:url(#SVGID_7_);stroke-width:3.8462;stroke-miterlimit:10;}
	.st7{opacity:0.7308;fill:none;stroke:url(#SVGID_8_);stroke-width:3.6538;stroke-miterlimit:10;}
	.st8{opacity:0.6923;fill:none;stroke:url(#SVGID_9_);stroke-width:3.4615;stroke-miterlimit:10;}
	.st9{opacity:0.6538;fill:none;stroke:url(#SVGID_10_);stroke-width:3.2692;stroke-miterlimit:10;}
	.st10{opacity:0.6154;fill:none;stroke:url(#SVGID_11_);stroke-width:3.0769;stroke-miterlimit:10;}
	.st11{opacity:0.5769;fill:none;stroke:url(#SVGID_12_);stroke-width:2.8846;stroke-miterlimit:10;}
	.st12{opacity:0.5385;fill:none;stroke:url(#SVGID_13_);stroke-width:2.6923;stroke-miterlimit:10;}
	.st13{opacity:0.5;fill:none;stroke:url(#SVGID_14_);stroke-width:2.5;stroke-miterlimit:10;}
	.st14{opacity:0.4615;fill:none;stroke:url(#SVGID_15_);stroke-width:2.3077;stroke-miterlimit:10;}
	.st15{opacity:0.4231;fill:none;stroke:url(#SVGID_16_);stroke-width:2.1154;stroke-miterlimit:10;}
	.st16{opacity:0.3846;fill:none;stroke:url(#SVGID_17_);stroke-width:1.9231;stroke-miterlimit:10;}
	.st17{opacity:0.3462;fill:none;stroke:url(#SVGID_18_);stroke-width:1.7308;stroke-miterlimit:10;}
	.st18{opacity:0.3077;fill:none;stroke:url(#SVGID_19_);stroke-width:1.5385;stroke-miterlimit:10;}
	.st19{opacity:0.2692;fill:none;stroke:url(#SVGID_20_);stroke-width:1.3462;stroke-miterlimit:10;}
	.st20{opacity:0.2308;fill:none;stroke:url(#SVGID_21_);stroke-width:1.1538;stroke-miterlimit:10;}
	.st21{opacity:0.1923;fill:none;stroke:url(#SVGID_22_);stroke-width:0.9615;stroke-miterlimit:10;}
	.st22{opacity:0.1538;fill:none;stroke:url(#SVGID_23_);stroke-width:0.7692;stroke-miterlimit:10;}
	.st23{opacity:0.1154;fill:none;stroke:url(#SVGID_24_);stroke-width:0.5769;stroke-miterlimit:10;}
	.st24{opacity:0.0769;fill:none;stroke:url(#SVGID_25_);stroke-width:0.3846;stroke-miterlimit:10;}
	.st25{opacity:0.0385;fill:none;stroke:url(#SVGID_26_);stroke-width:0.1923;stroke-miterlimit:10;}
	.st26{opacity:0;fill:none;}
	.st27{fill:#FFFFFF;}
	.st28{fill:#212121;}
	.st29{clip-path:url(#SVGID_30_);fill:url(#SVGID_31_);}
	.st30{fill:#F9F9F9;stroke:#EFEFEF;stroke-miterlimit:10;}
	.st31{clip-path:url(#SVGID_33_);fill:url(#SVGID_34_);}
	.st32{clip-path:url(#SVGID_33_);}
	.st33{fill:url(#SVGID_35_);}
	.st34{fill:#55FFDB;}
	.st35{fill:#008BE9;}
	.st36{clip-path:url(#SVGID_37_);fill:url(#SVGID_38_);}
	.st37{fill:url(#SVGID_39_);}
	.st38{clip-path:url(#SVGID_41_);}
	.st39{clip-path:url(#SVGID_43_);fill:url(#SVGID_44_);}
	.st40{fill:url(#SVGID_45_);}
	.st41{fill:#0F0F0F;}
	.st42{fill:none;stroke:#AFAFAF;stroke-miterlimit:10;}
	.st43{fill:#FFB537;}
	.st44{fill:none;stroke:#FFB537;stroke-width:9;stroke-linecap:round;stroke-linejoin:round;stroke-miterlimit:10;}
	.st45{opacity:0.3;}
	.st46{fill:#3EAC5C;}
	.st47{fill:#627EEA;}
	.st48{clip-path:url(#SVGID_47_);fill:url(#SVGID_48_);}
	.st49{fill:url(#SVGID_49_);}
	.st50{opacity:0.7;}
	.st51{opacity:0.2;}
	.st52{fill:#252525;}
	.st53{fill-rule:evenodd;clip-rule:evenodd;fill:#FFFFFF;}
	.st54{fill:#EDEDED;}
	.st55{fill:url(#SVGID_50_);}
	.st56{fill:url(#SVGID_51_);}
	.st57{fill:url(#SVGID_52_);}
	.st58{fill:url(#SVGID_53_);}
	.st59{fill:url(#SVGID_54_);}
	.st60{fill:url(#SVGID_55_);}
	.st61{fill:url(#SVGID_56_);}
	.st62{fill:url(#SVGID_57_);}
	.st63{fill:#FFFFFF;stroke:#949494;stroke-miterlimit:10;}
	.st64{fill:url(#SVGID_58_);}
	.st65{fill:url(#SVGID_59_);}
	.st66{fill:url(#SVGID_60_);}
	.st67{fill:url(#SVGID_61_);}
	.st68{fill:url(#SVGID_62_);}
	.st69{fill:url(#SVGID_63_);}
	.st70{fill:url(#SVGID_64_);}
	.st71{fill:url(#SVGID_65_);}
	.st72{fill:none;stroke:#000000;stroke-miterlimit:10;}
	.st73{clip-path:url(#SVGID_69_);}
	.st74{clip-path:url(#SVGID_71_);fill:url(#SVGID_72_);}
	.st75{clip-path:url(#SVGID_74_);fill:url(#SVGID_75_);}
	.st76{fill:url(#SVGID_76_);}
	.st77{fill:url(#SVGID_77_);}
	.st78{fill:url(#SVGID_78_);}
	.st79{fill:url(#SVGID_79_);}
	.st80{fill:url(#SVGID_80_);}
	.st81{fill:url(#SVGID_81_);}
	.st82{fill:url(#SVGID_82_);}
	.st83{fill:url(#SVGID_83_);}
	.st84{fill:url(#SVGID_84_);}
	.st85{fill:url(#SVGID_85_);}
	.st86{fill:url(#SVGID_86_);}
	.st87{fill:url(#SVGID_87_);}
	.st88{fill:url(#SVGID_88_);}
	.st89{fill:url(#SVGID_89_);}
	.st90{fill:url(#SVGID_90_);}
	.st91{fill:url(#SVGID_91_);}
	.st92{fill:url(#SVGID_92_);}
	.st93{clip-path:url(#SVGID_94_);fill:url(#SVGID_95_);}
	.st94{fill:url(#SVGID_96_);}
	.st95{fill:#F9F9F9;stroke:#EFEFEF;stroke-width:0.7697;stroke-miterlimit:10;}
	.st96{fill:#F9F9F9;stroke:#EFEFEF;stroke-width:0.7467;stroke-miterlimit:10;}
	.st97{fill:none;stroke:#AFAFAF;stroke-width:0.7467;stroke-miterlimit:10;}
	.st98{fill:none;stroke:#FFB537;stroke-width:6.7202;stroke-linecap:round;stroke-linejoin:round;stroke-miterlimit:10;}
	.st99{clip-path:url(#SVGID_100_);fill:url(#SVGID_101_);}
	.st100{fill:#F9F9F9;stroke:#EFEFEF;stroke-width:0.5207;stroke-miterlimit:10;}
	.st101{fill:url(#SVGID_102_);}
	.st102{fill:url(#SVGID_103_);}
	.st103{fill:url(#SVGID_104_);}
	.st104{fill:url(#SVGID_105_);}
	.st105{fill:url(#SVGID_106_);}
	.st106{fill:url(#SVGID_107_);}
	.st107{fill:url(#SVGID_108_);}
	.st108{fill:url(#SVGID_109_);}
	.st109{fill:url(#SVGID_110_);}
	.st110{fill:url(#SVGID_111_);}
	.st111{fill:url(#SVGID_112_);}
	.st112{fill:url(#SVGID_113_);}
	.st113{fill:url(#SVGID_114_);}
	.st114{fill:url(#SVGID_115_);}
	.st115{fill:url(#SVGID_116_);}
	.st116{fill:url(#SVGID_117_);}
	.st117{fill:#FFFFFF;stroke:#949494;stroke-width:0.637;stroke-miterlimit:10;}
	.st118{fill:url(#SVGID_118_);}
	.st119{fill:url(#SVGID_119_);}
	.st120{fill:url(#SVGID_120_);}
	.st121{fill:url(#SVGID_121_);}
	.st122{fill:url(#SVGID_122_);}
	.st123{fill:url(#SVGID_123_);}
	.st124{fill:url(#SVGID_124_);}
	.st125{fill:url(#SVGID_125_);}
	.st126{fill:none;stroke:#AFAFAF;stroke-width:1.0323;stroke-miterlimit:10;}
	.st127{fill:none;stroke:#FFB537;stroke-width:9.2904;stroke-linecap:round;stroke-linejoin:round;stroke-miterlimit:10;}
	.st128{fill:none;stroke:#3EAC5C;stroke-width:9.25;stroke-miterlimit:10;}
	.st129{fill:none;stroke:#627EEA;stroke-width:9.25;stroke-miterlimit:10;}
</style>
<g>
	<linearGradient id="SVGID_1_" gradientUnits="userSpaceOnUse" x1="0.4387" y1="30.005" x2="55.7712" y2="30.005">
		<stop  offset="0" style="stop-color:#55FFDB"/>
		<stop  offset="1" style="stop-color:#008BE9"/>
	</linearGradient>
	<path style="fill:url(#SVGID_1_);" d="M36.04,49.7c6.42-1.73,11.47-5.03,15-9.81c5.43-7.35,6.18-15.19,2.25-23.31
		c-2.38-4.91-6.35-8.74-11.8-11.37C34.4,1.79,26.89,1.2,19.17,3.45C13.22,5.19,8.45,8.44,5.01,13.12C0.45,19.29-0.7,26.05,1.57,33.2
		c1.49,4.67,4.49,8.69,8.92,11.94c0.13,0.1,0.15,0.14,0.15,0.29c-0.01,2.87-0.01,5.74-0.01,8.6l0,3.86l3.67-2.2
		c2.88-1.76,5.76-3.51,8.65-5.26c0.09-0.05,0.25-0.08,0.34-0.07C27.66,51.03,31.95,50.81,36.04,49.7z M16.01,49.46l-1.11,0.67
		l0.02-1.28c0.02-1.75,0.04-3.49,0.08-5.24c0.01-0.51-0.18-0.87-0.62-1.15c-4.2-2.67-6.95-5.95-8.41-10.03
		c-2.1-5.86-1.26-11.45,2.5-16.6c2.9-3.99,6.97-6.74,12.09-8.2c2.63-0.75,5.21-1.12,7.74-1.12c4.41,0,8.65,1.13,12.68,3.39
		c4.47,2.5,7.54,5.96,9.14,10.29c2.41,6.51,1.27,12.59-3.38,18.07c-3.39,3.98-8.03,6.55-13.81,7.64c-3.3,0.62-6.69,0.59-10.08-0.09
		h0c-0.41-0.08-0.76-0.02-1.12,0.2C19.83,47.15,17.92,48.31,16.01,49.46z"/>
	<linearGradient id="SVGID_2_" gradientUnits="userSpaceOnUse" x1="30.31" y1="43.445" x2="66.5624" y2="43.445">
		<stop  offset="0" style="stop-color:#55FFDB"/>
		<stop  offset="1" style="stop-color:#008BE9"/>
	</linearGradient>
	<path style="fill:url(#SVGID_2_);" d="M66.56,37.94c-0.08,5.23-2.03,9.87-5.79,13.81c-0.67,0.7-1.42,1.32-2.15,1.93L58,54.2
		c-0.13,0.11-0.13,0.14-0.13,0.23c0.01,2.49,0.01,4.99,0.01,7.49v3.35l-0.92-0.54c-0.1-0.06-0.19-0.11-0.27-0.17l-1.99-1.28
		c-2.25-1.46-4.5-2.92-6.75-4.39c-0.29-0.19-0.54-0.25-0.9-0.19c-5.07,0.75-9.99-0.04-14.6-2.34C31.72,56,31,55.59,30.31,55.14
		c1.7-0.2,3.37-0.53,5.02-0.97c0.55-0.15,1.09-0.31,1.62-0.48c2.59,0.9,5.36,1.23,8.27,1c0.74-0.06,1.49-0.2,2.22-0.33l0.11-0.02
		c0.38-0.07,0.72,0.01,1.04,0.24c1.35,0.96,2.71,1.9,4.06,2.85l0.76,0.53l0.01-0.99c0-1.35,0-2.69-0.01-4.03
		c-0.01-0.53,0.19-0.89,0.63-1.17c4.04-2.58,6.6-6.04,7.61-10.28c1.09-4.58,0.2-8.91-2.66-12.87c0.23-2.3,0.11-4.64-0.36-7
		l0.77,0.67c1.1,0.94,2.05,1.96,2.91,3.09C65.2,29.17,66.63,33.4,66.56,37.94z"/>
	<linearGradient id="SVGID_3_" gradientUnits="userSpaceOnUse" x1="14.0257" y1="23.0364" x2="42.1508" y2="23.0364">
		<stop  offset="0" style="stop-color:#55FFDB"/>
		<stop  offset="1" style="stop-color:#008BE9"/>
	</linearGradient>
	<path style="fill:url(#SVGID_3_);" d="M39.57,25.24l0.1,0c0.18,0,0.36,0,0.54-0.02c0.87-0.12,1.5-0.61,1.79-1.42
		c0.3-0.81,0.15-1.59-0.44-2.25c-0.58-0.65-1.32-0.72-1.84-0.72c0,0,0,0,0,0c-6.2,0-12.4,0-18.61,0l-4.72,0c-0.1,0-0.2,0-0.29,0.01
		c-0.92,0.07-1.67,0.65-1.96,1.51c-0.28,0.84-0.03,1.76,0.64,2.35c0.55,0.48,1.19,0.55,1.69,0.55c0,0,0,0,0.01,0c3,0,6.01,0,9.01,0
		L39.57,25.24z"/>
	<linearGradient id="SVGID_4_" gradientUnits="userSpaceOnUse" x1="17.4057" y1="33.2328" x2="38.757" y2="33.2328">
		<stop  offset="0" style="stop-color:#55FFDB"/>
		<stop  offset="1" style="stop-color:#008BE9"/>
	</linearGradient>
	<path style="fill:url(#SVGID_4_);" d="M28.08,35.43l5.72,0c0.33,0,0.66,0,0.99,0c0.61,0,1.22,0,1.84-0.01
		c0.99-0.01,1.82-0.68,2.06-1.67c0.24-0.97-0.2-1.99-1.05-2.41c-0.38-0.19-0.86-0.3-1.35-0.3c-4.58-0.01-9.16-0.01-13.75-0.01
		l-2.74,0c-0.17,0-0.34,0-0.51,0.03c-0.9,0.14-1.54,0.69-1.8,1.55c-0.2,0.67-0.09,1.37,0.32,1.91c0.42,0.57,1.09,0.89,1.85,0.9
		c2.01,0.01,4.03,0.01,6.04,0L28.08,35.43z"/>
</g>
</svg>
