<?xml version="1.0" encoding="utf-8"?>
<!-- Generator: Adobe Illustrator 24.0.0, SVG Export Plug-In . SVG Version: 6.00 Build 0)  -->
<svg version="1.1" id="Capa_1" xmlns="http://www.w3.org/2000/svg" xmlns:xlink="http://www.w3.org/1999/xlink" x="0px" y="0px"
	 viewBox="0 0 1503 177" style="enable-background:new 0 0 1503 177;" xml:space="preserve">
<style type="text/css">
	.st0{fill:#FFFFFF;}
	.st1{clip-path:url(#SVGID_2_);fill:url(#SVGID_3_);}
	.st2{fill:none;stroke:#000000;stroke-width:3;stroke-linecap:round;stroke-linejoin:round;stroke-miterlimit:10;}
</style>
<g>
	<g>
		<g>
			<path d="M751.5,7.3c44.84,0,81.2,36.35,81.2,81.2s-36.35,81.2-81.2,81.2s-81.2-36.35-81.2-81.2S706.66,7.3,751.5,7.3"/>
			<path class="st0" d="M766.55,90.18h-17.69c-2.81,0-5.03-0.75-6.61-2.23c-1.32-1.23-2.16-2.83-2.52-4.73h24
				c1.34,0,2.21-0.87,2.21-2.2c0-1.34-0.87-2.2-2.21-2.2h-24c0.35-1.91,1.19-3.49,2.5-4.73c1.56-1.48,3.79-2.23,6.63-2.23h17.69
				c1.34,0,2.21-0.87,2.21-2.2c0-1.34-0.87-2.2-2.21-2.2h-17.87c-4.34,0-7.75,1.3-10.15,3.86c-2.37,2.54-3.58,5.81-3.58,9.72
				c0,3.91,1.2,7.18,3.58,9.72c2.39,2.56,5.81,3.86,10.15,3.86h17.87c1.34,0,2.21-0.87,2.21-2.2
				C768.76,91.06,767.89,90.18,766.55,90.18"/>
			<path class="st0" d="M804.09,67.43h-30.63c-1.34,0-2.21,0.87-2.21,2.2c0,1.34,0.87,2.2,2.21,2.2h13.02v20.44
				c0,1.43,0.89,2.31,2.31,2.31c1.4,0,2.28-0.89,2.28-2.31V71.84h13.02c1.34,0,2.2-0.87,2.2-2.2
				C806.29,68.29,805.43,67.43,804.09,67.43"/>
			<path class="st0" d="M731.58,68.85c-0.11-0.32-0.41-0.67-0.83-0.67c-0.74-0.01-1.49-0.01-2.26-0.01h-0.57
				c-0.37,0-0.67,0.3-0.67,0.67l0.03,19.23v0.1c0,0.2,0,0.41-0.02,0.61c-0.03,0.38-0.19,0.66-0.43,0.77
				c-0.24,0.12-0.55,0.06-0.86-0.15c-0.27-0.18-0.54-0.43-0.82-0.75c-1.96-2.27-3.92-4.54-5.87-6.81
				c-3.24-3.76-6.49-7.52-9.75-11.28c-0.53-0.61-1.19-1.22-1.97-1.79c-0.58-0.43-1.19-0.71-1.86-0.86
				c-2.76-0.59-5.45,1.42-5.84,4.22c-0.07,0.51-0.09,1.01-0.09,1.47c0,4.74,0,9.48,0,14.23v5.25c0,0.37,0.3,0.67,0.67,0.67h2.47
				c0.38,0,0.72,0,0.99-0.28c0.27-0.28,0.27-0.61,0.27-0.99l-0.03-18.6c0-0.26,0-0.51,0.02-0.74c0.04-0.35,0.19-0.61,0.43-0.72
				c0.23-0.11,0.53-0.06,0.81,0.14c0.28,0.18,0.55,0.44,0.87,0.82c2.33,2.68,4.65,5.37,6.98,8.06c2.75,3.18,5.49,6.35,8.24,9.52
				c0.58,0.66,1.18,1.27,1.79,1.8c1.07,0.93,2.26,1.4,3.54,1.4c0.13,0,0.27,0,0.4-0.02c2.04-0.15,3.51-1.31,4.04-3.16
				c0.23-0.8,0.35-1.69,0.35-2.67c0.02-4.87,0.02-9.82,0.02-14.61V69.4l0-0.05C731.63,69.22,731.64,69.05,731.58,68.85"/>
		</g>
		<g>
			<defs>
				<path id="SVGID_1_" d="M751.29,104.54C751.29,104.54,751.29,104.54,751.29,104.54l0.36-0.33L751.29,104.54z M776.38,104.54
					C776.38,104.54,776.38,104.54,776.38,104.54l0.36-0.33L776.38,104.54z M787.68,103.39c-1.83,0-3.26,0.55-4.28,1.64
					c-1,1.07-1.51,2.45-1.51,4.1c0,1.65,0.51,3.02,1.51,4.1c1.02,1.09,2.46,1.64,4.28,1.64h5.47c0.89,0,1.6-0.26,2.11-0.76
					c0.51-0.51,0.76-1.21,0.76-2.08v-2.82c0-0.73-0.52-1.24-1.25-1.24c-0.73,0-1.23,0.51-1.23,1.24v2.7c0,0.03,0,0.06,0,0.08
					l-0.03,0.44l-0.51,0.02h-5.24c-1.13,0-1.93-0.29-2.51-0.91c-0.59-0.63-0.87-1.41-0.87-2.42c0-1.01,0.28-1.8,0.87-2.42
					c0.58-0.62,1.38-0.9,2.51-0.9h7.06c0.71,0,1.21-0.5,1.21-1.21s-0.5-1.21-1.21-1.21H787.68z M731.45,104.15v8.98
					c0,0.74,0.51,1.25,1.23,1.25c0.74,0,1.25-0.51,1.25-1.25v-8.98c0-0.74-0.51-1.25-1.25-1.25
					C731.95,102.9,731.45,103.42,731.45,104.15 M743.96,102.9c-1.82,0-3.27,0.55-4.28,1.64c-1,1.07-1.51,2.45-1.51,4.1v4.49
					c0,0.74,0.51,1.25,1.25,1.25c0.73,0,1.23-0.51,1.23-1.25v-4.49c0-1.01,0.28-1.8,0.87-2.42c0.58-0.61,1.38-0.9,2.52-0.9h2.9
					c1.14,0,1.94,0.29,2.52,0.9c0.58,0.62,0.87,1.42,0.87,2.42v4.49c0,0.74,0.51,1.25,1.23,1.25c0.74,0,1.25-0.51,1.25-1.25v-4.49
					c0-1.64-0.51-3.02-1.51-4.1l0,0c-1.02-1.09-2.46-1.64-4.28-1.64H743.96z M757.03,104.15v8.98c0,0.74,0.51,1.25,1.23,1.25
					c0.74,0,1.25-0.51,1.25-1.25v-8.98c0-0.74-0.51-1.25-1.25-1.25C757.53,102.9,757.03,103.42,757.03,104.15 M769.06,102.9
					c-1.83,0-3.27,0.55-4.28,1.64c-1,1.07-1.51,2.45-1.51,4.1v4.49c0,0.74,0.51,1.25,1.25,1.25c0.73,0,1.23-0.51,1.23-1.25v-4.49
					c0-1.01,0.28-1.8,0.87-2.42c0.58-0.61,1.38-0.9,2.52-0.9h2.9c1.14,0,1.94,0.29,2.52,0.9c0.58,0.62,0.86,1.41,0.86,2.42v4.49
					c0,0.74,0.51,1.25,1.24,1.25c0.74,0,1.25-0.51,1.25-1.25v-4.49c0-1.64-0.51-3.02-1.51-4.1l0,0c-1.02-1.09-2.46-1.64-4.28-1.64
					H769.06z M721.03,102.89c-1.13,0-2.09,0.25-2.88,0.74c-0.26,0.16-0.49,0.35-0.71,0.55l-0.33,0.32l-0.33-0.32
					c-0.21-0.2-0.45-0.39-0.71-0.55c-0.78-0.5-1.75-0.74-2.88-0.74h-0.94c-1.61,0-2.88,0.49-3.78,1.46
					c-0.89,0.95-1.33,2.17-1.33,3.61v5.16c0,0.74,0.51,1.25,1.25,1.25c0.72,0,1.24-0.51,1.24-1.25v-5.18c0-0.8,0.23-1.43,0.69-1.92
					c0.29-0.3,0.81-0.71,1.98-0.71h0.91c1.18,0,1.69,0.41,1.98,0.71c0.46,0.49,0.69,1.12,0.69,1.93v5.17c0,0.74,0.51,1.25,1.24,1.25
					c0.74,0,1.25-0.51,1.25-1.25v-5.17c0-0.81,0.23-1.44,0.69-1.93c0.29-0.3,0.81-0.71,1.98-0.71h0.9c1.18,0,1.69,0.41,1.98,0.71
					c0.46,0.49,0.69,1.12,0.69,1.93v5.17c0,0.74,0.51,1.25,1.25,1.25c0.72,0,1.23-0.51,1.23-1.25v-5.16c0-1.44-0.45-2.66-1.33-3.61
					c-0.9-0.97-2.17-1.46-3.76-1.47H721.03z M683.08,100.84c-1.35-0.61-1.94-2.19-1.33-3.54s2.19-1.94,3.54-1.33
					c1.35,0.61,1.94,2.19,1.33,3.54c-0.45,0.99-1.42,1.57-2.44,1.57C683.81,101.08,683.44,101,683.08,100.84 M679.25,96.08
					c-1.21,2.67-0.03,5.81,2.64,7.02c0.42,0.19,0.86,0.31,1.29,0.39c4.61,20.51,18.38,38.7,38.93,48.15
					c33.99,15.63,74.66,1.42,91.47-32c2.66-5.3,4.59-10.77,5.82-16.28l-3.77-0.13c-1.07,4.57-2.64,9.05-4.7,13.4
					c-7.2,15.15-19.99,27.05-35.61,33.15c-16.45,6.42-34.37,6.05-50.49-0.99c-15.94-6.97-28.57-20.02-34.97-36.2
					c-1.27-3.21-2.28-6.48-3.03-9.78c0.89-0.53,1.63-1.33,2.09-2.35c1.21-2.67,0.03-5.81-2.64-7.03c-0.71-0.32-1.46-0.48-2.19-0.48
					C682.06,92.97,680.13,94.12,679.25,96.08 M816.9,83.6c-1.35-0.61-1.94-2.19-1.33-3.54c0.61-1.35,2.19-1.94,3.54-1.33
					c1.35,0.61,1.94,2.19,1.33,3.54c-0.45,0.99-1.42,1.57-2.44,1.57C817.64,83.84,817.26,83.77,816.9,83.6 M688.02,58.76
					c-3.1,6.66-5.06,13.55-5.97,20.46l3.72,0.13c0.85-6.18,2.58-12.27,5.21-18.12c7.14-15.9,20.36-28.42,36.64-34.65
					c16.63-6.37,34.73-5.82,50.93,1.53c16.07,7.29,28.33,20.4,34.54,36.92c1.38,3.68,2.42,7.42,3.13,11.2
					c-1.34,0.58-2.45,1.69-2.96,3.23c-0.76,2.33,0.22,4.95,2.33,6.2c2.77,1.64,6.26,0.49,7.55-2.36c1.21-2.67,0.03-5.81-2.64-7.03
					c-0.18-0.08-0.37-0.15-0.55-0.21c-3.83-21.47-17.63-40.78-38.73-50.81c-9.6-4.56-19.75-6.72-29.75-6.72
					C725.15,18.53,699.83,33.43,688.02,58.76"/>
			</defs>
			<clipPath id="SVGID_2_">
				<use xlink:href="#SVGID_1_"  style="overflow:visible;"/>
			</clipPath>
			
				<linearGradient id="SVGID_3_" gradientUnits="userSpaceOnUse" x1="-492.044" y1="670.7684" x2="-491.6377" y2="670.7684" gradientTransform="matrix(-274.5207 293.9483 -293.9483 -274.5207 62897.5273 328804.7188)">
				<stop  offset="0" style="stop-color:#55FFDB"/>
				<stop  offset="1" style="stop-color:#008BE9"/>
			</linearGradient>
			<polygon class="st1" points="746.19,-71.46 603.83,97.98 756.18,240.26 898.55,87.82 			"/>
		</g>
	</g>
	<g>
		<g>
			<line class="st2" x1="603.88" y1="88.5" x2="26.13" y2="88.5"/>
		</g>
		<g>
			<line class="st2" x1="1476.88" y1="88.5" x2="899.13" y2="88.5"/>
		</g>
	</g>
</g>
</svg>
